<svg xmlns="http://www.w3.org/2000/svg">
    <symbol id="arrow" width="37" height="37" viewBox="0 0 37 37" fill="none">
        <rect width="37" height="37" rx="18.5" fill="white"/>
        <path d="M13.8431 23.1568L23.1568 13.8431M23.1568 13.8431H17.4999M23.1568 13.8431V19.4999" stroke="currentColor"/>
    </symbol>
    <symbol id="arrow-corner" width="48" height="48" viewBox="0 0 48 48" fill="none">
        <path d="M19.5 17L28.5 24L19.5 31" stroke="currentColor" stroke-width="2"/>
    </symbol>
    <symbol id="arrow-down" viewBox="0 0 16 10" fill="none">
        <path d="M0.707153 0.707153L7.70715 7.70715L14.7072 0.707153" stroke="currentColor" stroke-width="2"/>
    </symbol>
    <symbol id="star" viewBox="0 0 18 17" fill="none">
        <path d="M8.55859 0L10.5792 6.21885H17.1181L11.828 10.0623L13.8487 16.2812L8.55859 12.4377L3.26853 16.2812L5.28915 10.0623L-0.000914574 6.21885H6.53797L8.55859 0Z" fill="#FBBC05"/>
    </symbol>
    <symbol id="star-gradient" viewBox="0 0 18 17" fill="none">
        <path d="M8.55859 0L10.5792 6.21885H17.1181L11.828 10.0623L13.8487 16.2812L8.55859 12.4377L3.26853 16.2812L5.28915 10.0623L-0.000914574 6.21885H6.53797L8.55859 0Z" fill="url(#paint0_linear_338_1317)"/>
        <defs>
        <linearGradient id="paint0_linear_338_1317" x1="-0.441406" y1="6.3" x2="17.5586" y2="6.3" gradientUnits="userSpaceOnUse">
            <stop offset="0.57605" stop-color="#FBBC05"/>
            <stop offset="0.615846" stop-color="#FFF4D5"/>
        </linearGradient>
        </defs>
    </symbol>
    <symbol id="checked" viewBox="0 0 16 13" fill="none">
        <path d="M0.707031 4.70703L4.70703 8.70703L12.707 0.707031" stroke="currentColor" stroke-width="2"/>
    </symbol>
    <symbol id="marker" viewBox="0 0 8 12" fill="none">
        <path d="M4 0C1.901 0 0 1.7015 0 3.801C0 5.9 1.7345 8.406 4 12C6.2655 8.406 8 5.9 8 3.801C8 1.7015 6.0995 0 4 0ZM4 5.5C3.1715 5.5 2.5 4.8285 2.5 4C2.5 3.1715 3.1715 2.5 4 2.5C4.8285 2.5 5.5 3.1715 5.5 4C5.5 4.8285 4.8285 5.5 4 5.5Z" fill="currentColor"/>
    </symbol>
    <symbol id="phone" viewBox="0 0 11 11" fill="none">
        <path d="M9.9383 10.4881C9.71826 10.8243 9.33609 11.0213 8.93076 10.9982C8.52543 10.975 8.00429 10.917 7.64529 10.8243C6.04713 10.4069 4.39108 9.4099 2.9898 8.00713C1.58852 6.60436 0.592562 4.94654 0.175653 3.34669C0.0830059 2.9873 0.0366826 2.4772 0.00194013 2.07144C-0.0212215 1.67727 0.164077 1.2947 0.499921 1.07443L1.92436 0.123795C2.29495 -0.119661 2.79292 0.00785908 2.9898 0.402026L4.14788 2.63951C4.31001 2.95252 4.22895 3.34669 3.95101 3.56696L2.90873 4.37848C3.32564 5.15522 3.71939 5.78125 4.48372 6.5348C5.19015 7.24198 5.80393 7.65934 6.60301 8.08828L7.42525 7.0333C7.64529 6.75507 8.03904 6.66232 8.35172 6.83622L10.5984 7.99553C10.9921 8.19262 11.1195 8.69113 10.8763 9.06211L9.9383 10.4881Z" fill="currentColor"/>
    </symbol>
    <symbol id="letter" viewBox="0 0 16 13" fill="none">
        <path d="M15.9587 1.78791C15.8866 1.4246 15.7255 1.09213 15.5005 0.81747C15.4531 0.757627 15.4035 0.704033 15.3498 0.650439C14.9512 0.249875 14.3918 0 13.7806 0H2.21941C1.60825 0 1.05081 0.249875 0.650345 0.650439C0.596751 0.704033 0.547189 0.757627 0.499626 0.81747C0.274532 1.0921 0.113438 1.4246 0.0433126 1.78791C0.0145 1.92813 0 2.07304 0 2.21954V10.3393C0 10.6508 0.0660626 10.9503 0.183875 11.2207C0.293157 11.4788 0.454282 11.7124 0.650314 11.9082C0.700001 11.9578 0.749345 12.0033 0.803189 12.0486C1.18713 12.3666 1.68272 12.5587 2.21941 12.5587H13.7806C14.3175 12.5587 14.8152 12.3666 15.197 12.0466C15.2507 12.0033 15.3002 11.9578 15.3498 11.9082C15.5457 11.7124 15.7068 11.4788 15.8184 11.2207V11.2187C15.9362 10.9483 16 10.6508 16 10.3394V2.21954C16 2.07304 15.9858 1.92813 15.9587 1.78791ZM1.45341 1.45341C1.65169 1.25535 1.91797 1.13544 2.21941 1.13544H13.7806C14.0821 1.13544 14.3507 1.25535 14.5466 1.45341C14.5817 1.48869 14.6147 1.528 14.6439 1.56707L8.58427 6.84817C8.41714 6.99464 8.2107 7.06698 8.00002 7.06698C7.79145 7.06698 7.58514 6.99464 7.4158 6.84817L1.3585 1.56482C1.38532 1.52575 1.41835 1.48869 1.45341 1.45341ZM1.13544 10.3393V2.73979L5.52057 6.56526L1.13766 10.3867C1.13544 10.3722 1.13544 10.3559 1.13544 10.3393ZM13.7806 11.423H2.21941C2.02313 11.423 1.83947 11.3714 1.68272 11.2807L6.30704 7.25076L6.73876 7.62633C7.10005 7.94027 7.55214 8.09927 8.00002 8.09927C8.4502 8.09927 8.90227 7.94027 9.26352 7.62633L9.69502 7.25076L14.3175 11.2807C14.1606 11.3714 13.9769 11.423 13.7806 11.423ZM14.8646 10.3393C14.8646 10.3559 14.8646 10.3722 14.8625 10.3867L10.4796 6.56748L14.8646 2.74182V10.3393Z" fill="currentColor"/>
    </symbol>
    <symbol id="remove" viewBox="0 0 22 22" fill="none">
        <path d="M1.06055 1.06055L20.1194 20.1194" stroke="currentColor" stroke-width="3"/>
        <path d="M20.1191 1.06055L1.06032 20.1194" stroke="currentColor" stroke-width="3"/>
    </symbol>
</svg>