<svg xmlns="http://www.w3.org/2000/svg">
    <symbol id="arrow" width="37" height="37" viewBox="0 0 37 37" fill="none">
        <rect width="37" height="37" rx="18.5" fill="white"/>
        <path d="M13.8431 23.1568L23.1568 13.8431M23.1568 13.8431H17.4999M23.1568 13.8431V19.4999" stroke="currentColor"/>
    </symbol>
    <symbol id="arrow-corner" width="48" height="48" viewBox="0 0 48 48" fill="none">
        <path d="M19.5 17L28.5 24L19.5 31" stroke="currentColor" stroke-width="2"/>
    </symbol>
    <symbol id="arrow-down" viewBox="0 0 16 10" fill="none">
        <path d="M0.707153 0.707153L7.70715 7.70715L14.7072 0.707153" stroke="currentColor" stroke-width="2"/>
    </symbol>
    <symbol id="star" viewBox="0 0 18 17" fill="none">
        <path d="M8.55859 0L10.5792 6.21885H17.1181L11.828 10.0623L13.8487 16.2812L8.55859 12.4377L3.26853 16.2812L5.28915 10.0623L-0.000914574 6.21885H6.53797L8.55859 0Z" fill="#FBBC05"/>
    </symbol>
    <symbol id="star-gradient" viewBox="0 0 18 17" fill="none">
        <path d="M8.55859 0L10.5792 6.21885H17.1181L11.828 10.0623L13.8487 16.2812L8.55859 12.4377L3.26853 16.2812L5.28915 10.0623L-0.000914574 6.21885H6.53797L8.55859 0Z" fill="url(#paint0_linear_338_1317)"/>
        <defs>
        <linearGradient id="paint0_linear_338_1317" x1="-0.441406" y1="6.3" x2="17.5586" y2="6.3" gradientUnits="userSpaceOnUse">
            <stop offset="0.57605" stop-color="#FBBC05"/>
            <stop offset="0.615846" stop-color="#FFF4D5"/>
        </linearGradient>
        </defs>
    </symbol>
    <symbol id="checked" viewBox="0 0 16 13" fill="none">
        <path d="M0.707031 4.70703L4.70703 8.70703L12.707 0.707031" stroke="currentColor" stroke-width="2"/>
    </symbol>
    <symbol id="marker" viewBox="0 0 8 12" fill="none">
        <path d="M4 0C1.901 0 0 1.7015 0 3.801C0 5.9 1.7345 8.406 4 12C6.2655 8.406 8 5.9 8 3.801C8 1.7015 6.0995 0 4 0ZM4 5.5C3.1715 5.5 2.5 4.8285 2.5 4C2.5 3.1715 3.1715 2.5 4 2.5C4.8285 2.5 5.5 3.1715 5.5 4C5.5 4.8285 4.8285 5.5 4 5.5Z" fill="currentColor"/>
    </symbol>
    <symbol id="phone" viewBox="0 0 11 11" fill="none">
        <path d="M9.9383 10.4881C9.71826 10.8243 9.33609 11.0213 8.93076 10.9982C8.52543 10.975 8.00429 10.917 7.64529 10.8243C6.04713 10.4069 4.39108 9.4099 2.9898 8.00713C1.58852 6.60436 0.592562 4.94654 0.175653 3.34669C0.0830059 2.9873 0.0366826 2.4772 0.00194013 2.07144C-0.0212215 1.67727 0.164077 1.2947 0.499921 1.07443L1.92436 0.123795C2.29495 -0.119661 2.79292 0.00785908 2.9898 0.402026L4.14788 2.63951C4.31001 2.95252 4.22895 3.34669 3.95101 3.56696L2.90873 4.37848C3.32564 5.15522 3.71939 5.78125 4.48372 6.5348C5.19015 7.24198 5.80393 7.65934 6.60301 8.08828L7.42525 7.0333C7.64529 6.75507 8.03904 6.66232 8.35172 6.83622L10.5984 7.99553C10.9921 8.19262 11.1195 8.69113 10.8763 9.06211L9.9383 10.4881Z" fill="currentColor"/>
    </symbol>
    <symbol id="letter" viewBox="0 0 16 13" fill="none">
        <path d="M15.9587 1.78791C15.8866 1.4246 15.7255 1.09213 15.5005 0.81747C15.4531 0.757627 15.4035 0.704033 15.3498 0.650439C14.9512 0.249875 14.3918 0 13.7806 0H2.21941C1.60825 0 1.05081 0.249875 0.650345 0.650439C0.596751 0.704033 0.547189 0.757627 0.499626 0.81747C0.274532 1.0921 0.113438 1.4246 0.0433126 1.78791C0.0145 1.92813 0 2.07304 0 2.21954V10.3393C0 10.6508 0.0660626 10.9503 0.183875 11.2207C0.293157 11.4788 0.454282 11.7124 0.650314 11.9082C0.700001 11.9578 0.749345 12.0033 0.803189 12.0486C1.18713 12.3666 1.68272 12.5587 2.21941 12.5587H13.7806C14.3175 12.5587 14.8152 12.3666 15.197 12.0466C15.2507 12.0033 15.3002 11.9578 15.3498 11.9082C15.5457 11.7124 15.7068 11.4788 15.8184 11.2207V11.2187C15.9362 10.9483 16 10.6508 16 10.3394V2.21954C16 2.07304 15.9858 1.92813 15.9587 1.78791ZM1.45341 1.45341C1.65169 1.25535 1.91797 1.13544 2.21941 1.13544H13.7806C14.0821 1.13544 14.3507 1.25535 14.5466 1.45341C14.5817 1.48869 14.6147 1.528 14.6439 1.56707L8.58427 6.84817C8.41714 6.99464 8.2107 7.06698 8.00002 7.06698C7.79145 7.06698 7.58514 6.99464 7.4158 6.84817L1.3585 1.56482C1.38532 1.52575 1.41835 1.48869 1.45341 1.45341ZM1.13544 10.3393V2.73979L5.52057 6.56526L1.13766 10.3867C1.13544 10.3722 1.13544 10.3559 1.13544 10.3393ZM13.7806 11.423H2.21941C2.02313 11.423 1.83947 11.3714 1.68272 11.2807L6.30704 7.25076L6.73876 7.62633C7.10005 7.94027 7.55214 8.09927 8.00002 8.09927C8.4502 8.09927 8.90227 7.94027 9.26352 7.62633L9.69502 7.25076L14.3175 11.2807C14.1606 11.3714 13.9769 11.423 13.7806 11.423ZM14.8646 10.3393C14.8646 10.3559 14.8646 10.3722 14.8625 10.3867L10.4796 6.56748L14.8646 2.74182V10.3393Z" fill="currentColor"/>
    </symbol>
    <symbol id="remove" viewBox="0 0 22 22" fill="none">
        <path d="M1.06055 1.06055L20.1194 20.1194" stroke="currentColor" stroke-width="3"/>
        <path d="M20.1191 1.06055L1.06032 20.1194" stroke="currentColor" stroke-width="3"/>
    </symbol>
    <symbol id="logo" viewBox="0 0 115 29" fill="none">
        <mask id="path-1-outside-1_531_628" maskUnits="userSpaceOnUse" x="-1" y="-1" width="117" height="30" fill="black">
        <rect fill="white" x="-1" y="-1" width="117" height="30"/>
        <path d="M9.47491 16.0403C9.41051 15.3924 9.13412 14.889 8.64575 14.5303C8.15738 14.1715 7.49459 13.9921 6.65739 13.9921C6.08852 13.9921 5.6082 14.0725 5.21643 14.2331C4.82466 14.3884 4.52413 14.6052 4.31483 14.8837C4.11089 15.1621 4.00892 15.4781 4.00892 15.8315C3.99819 16.126 4.05991 16.383 4.19408 16.6025C4.33361 16.8221 4.52413 17.0122 4.76563 17.1728C5.00713 17.3281 5.2862 17.4647 5.60283 17.5825C5.91947 17.6949 6.25757 17.7913 6.61714 17.8716L8.09835 18.225C8.81749 18.3857 9.47759 18.5998 10.0787 18.8676C10.6797 19.1353 11.2003 19.4646 11.6404 19.8555C12.0804 20.2464 12.4212 20.7069 12.6627 21.237C12.9096 21.7671 13.0357 22.3749 13.0411 23.0603C13.0357 24.067 12.7781 24.9398 12.2683 25.6787C11.7638 26.4123 11.0339 26.9826 10.0787 27.3896C9.12875 27.7912 7.98296 27.992 6.64129 27.992C5.31035 27.992 4.15114 27.7885 3.16367 27.3815C2.18156 26.9746 1.41413 26.3722 0.861355 25.5743C0.313952 24.7711 0.0268335 23.7778 0 22.5944H3.37297C3.41054 23.146 3.56885 23.6065 3.84792 23.976C4.13236 24.3401 4.51071 24.6158 4.98298 24.8033C5.46062 24.9853 5.99997 25.0763 6.60104 25.0763C7.19138 25.0763 7.7039 24.9907 8.1386 24.8193C8.57867 24.648 8.91945 24.4097 9.16095 24.1045C9.40246 23.7992 9.52321 23.4485 9.52321 23.0523C9.52321 22.6828 9.41319 22.3722 9.19315 22.1206C8.97849 21.8689 8.66185 21.6547 8.24325 21.478C7.83001 21.3013 7.32286 21.1406 6.72179 20.9961L4.92663 20.5463C3.53665 20.2089 2.43916 19.6815 1.63416 18.964C0.829155 18.2464 0.429336 17.2799 0.434703 16.0644C0.429336 15.0684 0.694987 14.1983 1.23166 13.454C1.77369 12.7097 2.51698 12.1287 3.46152 11.711C4.40606 11.2934 5.4794 11.0845 6.68154 11.0845C7.90515 11.0845 8.97312 11.2934 9.88546 11.711C10.8032 12.1287 11.5169 12.7097 12.0268 13.454C12.5366 14.1983 12.7996 15.0604 12.8157 16.0403H9.47491Z"/>
        <path d="M16.8537 27.759L13.4887 15.4218H16.9583L18.8742 23.7109H18.9869L20.9833 15.4218H24.3885L26.4171 23.6627H26.5218L28.4055 15.4218H31.867L28.5101 27.759H24.8796L22.7543 20.0001H22.6014L20.4762 27.759H16.8537Z"/>
        <path d="M32.7896 27.759V15.4218H36.2189V27.759H32.7896ZM34.5123 13.8315C34.0025 13.8315 33.5651 13.6628 33.2002 13.3255C32.8406 12.9828 32.6608 12.5731 32.6608 12.0966C32.6608 11.6254 32.8406 11.2211 33.2002 10.8837C33.5651 10.541 34.0025 10.3697 34.5123 10.3697C35.0222 10.3697 35.4569 10.541 35.8164 10.8837C36.1814 11.2211 36.3638 11.6254 36.3638 12.0966C36.3638 12.5731 36.1814 12.9828 35.8164 13.3255C35.4569 13.6628 35.0222 13.8315 34.5123 13.8315Z"/>
        <path d="M48.3472 18.9399L45.2077 19.1326C45.154 18.8649 45.0386 18.6239 44.8615 18.4098C44.6844 18.1902 44.451 18.0162 44.1612 17.8877C43.8768 17.7538 43.536 17.6869 43.1388 17.6869C42.6075 17.6869 42.1594 17.7993 41.7945 18.0242C41.4295 18.2438 41.2471 18.5383 41.2471 18.9077C41.2471 19.2022 41.3651 19.4512 41.6013 19.6547C41.8374 19.8582 42.2426 20.0215 42.8168 20.1447L45.0547 20.5945C46.2569 20.8408 47.1531 21.237 47.7435 21.7832C48.3338 22.3294 48.629 23.0469 48.629 23.9358C48.629 24.7444 48.3901 25.4538 47.9125 26.0643C47.4402 26.6747 46.7909 27.1513 45.9644 27.494C45.1433 27.8313 44.1961 28 43.1227 28C41.4859 28 40.1818 27.66 39.2104 26.9799C38.2444 26.2945 37.6782 25.3628 37.5119 24.1848L40.8848 24.0081C40.9868 24.5061 41.2337 24.8862 41.6254 25.1486C42.0172 25.4057 42.519 25.5342 43.1308 25.5342C43.7319 25.5342 44.2149 25.419 44.5798 25.1888C44.9501 24.9532 45.1379 24.6506 45.1433 24.2812C45.1379 23.9706 45.0064 23.7163 44.7488 23.5181C44.4912 23.3146 44.0941 23.1594 43.5574 23.0523L41.4161 22.6266C40.2086 22.3856 39.3097 21.9679 38.7194 21.3736C38.1344 20.7792 37.8419 20.0215 37.8419 19.1005C37.8419 18.308 38.0566 17.6253 38.4859 17.0523C38.9206 16.4794 39.5297 16.0376 40.3133 15.7271C41.1022 15.4165 42.0252 15.2612 43.0825 15.2612C44.6442 15.2612 45.8732 15.5905 46.7694 16.2491C47.671 16.9078 48.1969 17.8047 48.3472 18.9399Z"/>
        <path d="M60.1696 18.9399L57.0301 19.1326C56.9764 18.8649 56.861 18.6239 56.6839 18.4098C56.5068 18.1902 56.2734 18.0162 55.9836 17.8877C55.6991 17.7538 55.3584 17.6869 54.9612 17.6869C54.4299 17.6869 53.9818 17.7993 53.6169 18.0242C53.2519 18.2438 53.0695 18.5383 53.0695 18.9077C53.0695 19.2022 53.1875 19.4512 53.4237 19.6547C53.6598 19.8582 54.065 20.0215 54.6392 20.1447L56.8771 20.5945C58.0793 20.8408 58.9755 21.237 59.5658 21.7832C60.1562 22.3294 60.4514 23.0469 60.4514 23.9358C60.4514 24.7444 60.2125 25.4538 59.7349 26.0643C59.2626 26.6747 58.6133 27.1513 57.7868 27.494C56.9657 27.8313 56.0185 28 54.9451 28C53.3083 28 52.0042 27.66 51.0328 26.9799C50.0668 26.2945 49.5006 25.3628 49.3342 24.1848L52.7072 24.0081C52.8092 24.5061 53.056 24.8862 53.4478 25.1486C53.8396 25.4057 54.3414 25.5342 54.9532 25.5342C55.5542 25.5342 56.0372 25.419 56.4022 25.1888C56.7725 24.9532 56.9603 24.6506 56.9657 24.2812C56.9603 23.9706 56.8288 23.7163 56.5712 23.5181C56.3136 23.3146 55.9165 23.1594 55.3798 23.0523L53.2385 22.6266C52.031 22.3856 51.1321 21.9679 50.5417 21.3736C49.9568 20.7792 49.6643 20.0215 49.6643 19.1005C49.6643 18.308 49.879 17.6253 50.3083 17.0523C50.743 16.4794 51.3521 16.0376 52.1357 15.7271C52.9246 15.4165 53.8476 15.2612 54.9049 15.2612C56.4666 15.2612 57.6955 15.5905 58.5918 16.2491C59.4934 16.9078 60.0193 17.8047 60.1696 18.9399Z"/>
        <path d="M64.7047 27.759L59.9873 11.3094H63.795L66.524 22.739H66.6608L69.6716 11.3094H72.9318L75.9345 22.7631H76.0794L82.2087 0H86.0164L77.8987 27.759H74.5016L71.3621 17.0041H71.2333L68.1018 27.759H64.7047Z"/>
        <path d="M87.7689 28C86.5185 28 85.4371 27.7349 84.5248 27.2048C83.6178 26.6694 82.9174 25.9251 82.4237 24.9719C81.93 24.0134 81.6831 22.9023 81.6831 21.6386C81.6831 20.3642 81.93 19.2504 82.4237 18.2973C82.9174 17.3388 83.6178 16.5945 84.5248 16.0644C85.4371 15.5289 86.5185 15.2612 87.7689 15.2612C89.0194 15.2612 90.0981 15.5289 91.0051 16.0644C91.9174 16.5945 92.6204 17.3388 93.1142 18.2973C93.6079 19.2504 93.8548 20.3642 93.8548 21.6386C93.8548 22.9023 93.6079 24.0134 93.1142 24.9719C92.6204 25.9251 91.9174 26.6694 91.0051 27.2048C90.0981 27.7349 89.0194 28 87.7689 28ZM87.785 25.3494C88.3539 25.3494 88.8289 25.1888 89.2099 24.8675C89.5909 24.5409 89.8781 24.0964 90.0713 23.5342C90.2698 22.9719 90.3691 22.3321 90.3691 21.6145C90.3691 20.897 90.2698 20.2571 90.0713 19.6949C89.8781 19.1326 89.5909 18.6882 89.2099 18.3616C88.8289 18.0349 88.3539 17.8716 87.785 17.8716C87.2108 17.8716 86.7278 18.0349 86.336 18.3616C85.9496 18.6882 85.6572 19.1326 85.4586 19.6949C85.2654 20.2571 85.1688 20.897 85.1688 21.6145C85.1688 22.3321 85.2654 22.9719 85.4586 23.5342C85.6572 24.0964 85.9496 24.5409 86.336 24.8675C86.7278 25.1888 87.2108 25.3494 87.785 25.3494Z"/>
        <path d="M95.1779 27.759V15.4218H98.5026V17.5744H98.6314C98.8568 16.8087 99.2351 16.2304 99.7664 15.8395C100.298 15.4433 100.91 15.2451 101.602 15.2451C101.774 15.2451 101.959 15.2558 102.157 15.2773C102.356 15.2987 102.53 15.3281 102.681 15.3656V18.4017C102.52 18.3535 102.297 18.3107 102.012 18.2732C101.728 18.2357 101.468 18.217 101.232 18.217C100.727 18.217 100.276 18.3268 99.8791 18.5463C99.4874 18.7605 99.1761 19.0603 98.9453 19.4459C98.7199 19.8314 98.6072 20.2759 98.6072 20.7792V27.759H95.1779Z"/>
        <path d="M106.789 15.4218L109.059 19.735L111.386 15.4218H114.903L111.321 21.5904L115 27.759H111.498L109.059 23.494L106.66 27.759H103.118L106.789 21.5904L103.247 15.4218H106.789Z"/>
        <path d="M79.5726 6.27136L81.1134 0.61681H75.0388V6.27136H79.5726Z"/>
        <path d="M77.4426 5.14045V1.74772H78.3023V5.14045H77.4426ZM76.1723 3.87297V3.0152H79.5726V3.87297H76.1723Z"/>
        </mask>
        <path d="M9.47491 16.0403C9.41051 15.3924 9.13412 14.889 8.64575 14.5303C8.15738 14.1715 7.49459 13.9921 6.65739 13.9921C6.08852 13.9921 5.6082 14.0725 5.21643 14.2331C4.82466 14.3884 4.52413 14.6052 4.31483 14.8837C4.11089 15.1621 4.00892 15.4781 4.00892 15.8315C3.99819 16.126 4.05991 16.383 4.19408 16.6025C4.33361 16.8221 4.52413 17.0122 4.76563 17.1728C5.00713 17.3281 5.2862 17.4647 5.60283 17.5825C5.91947 17.6949 6.25757 17.7913 6.61714 17.8716L8.09835 18.225C8.81749 18.3857 9.47759 18.5998 10.0787 18.8676C10.6797 19.1353 11.2003 19.4646 11.6404 19.8555C12.0804 20.2464 12.4212 20.7069 12.6627 21.237C12.9096 21.7671 13.0357 22.3749 13.0411 23.0603C13.0357 24.067 12.7781 24.9398 12.2683 25.6787C11.7638 26.4123 11.0339 26.9826 10.0787 27.3896C9.12875 27.7912 7.98296 27.992 6.64129 27.992C5.31035 27.992 4.15114 27.7885 3.16367 27.3815C2.18156 26.9746 1.41413 26.3722 0.861355 25.5743C0.313952 24.7711 0.0268335 23.7778 0 22.5944H3.37297C3.41054 23.146 3.56885 23.6065 3.84792 23.976C4.13236 24.3401 4.51071 24.6158 4.98298 24.8033C5.46062 24.9853 5.99997 25.0763 6.60104 25.0763C7.19138 25.0763 7.7039 24.9907 8.1386 24.8193C8.57867 24.648 8.91945 24.4097 9.16095 24.1045C9.40246 23.7992 9.52321 23.4485 9.52321 23.0523C9.52321 22.6828 9.41319 22.3722 9.19315 22.1206C8.97849 21.8689 8.66185 21.6547 8.24325 21.478C7.83001 21.3013 7.32286 21.1406 6.72179 20.9961L4.92663 20.5463C3.53665 20.2089 2.43916 19.6815 1.63416 18.964C0.829155 18.2464 0.429336 17.2799 0.434703 16.0644C0.429336 15.0684 0.694987 14.1983 1.23166 13.454C1.77369 12.7097 2.51698 12.1287 3.46152 11.711C4.40606 11.2934 5.4794 11.0845 6.68154 11.0845C7.90515 11.0845 8.97312 11.2934 9.88546 11.711C10.8032 12.1287 11.5169 12.7097 12.0268 13.454C12.5366 14.1983 12.7996 15.0604 12.8157 16.0403H9.47491Z" fill="#061917"/>
        <path d="M16.8537 27.759L13.4887 15.4218H16.9583L18.8742 23.7109H18.9869L20.9833 15.4218H24.3885L26.4171 23.6627H26.5218L28.4055 15.4218H31.867L28.5101 27.759H24.8796L22.7543 20.0001H22.6014L20.4762 27.759H16.8537Z" fill="#061917"/>
        <path d="M32.7896 27.759V15.4218H36.2189V27.759H32.7896ZM34.5123 13.8315C34.0025 13.8315 33.5651 13.6628 33.2002 13.3255C32.8406 12.9828 32.6608 12.5731 32.6608 12.0966C32.6608 11.6254 32.8406 11.2211 33.2002 10.8837C33.5651 10.541 34.0025 10.3697 34.5123 10.3697C35.0222 10.3697 35.4569 10.541 35.8164 10.8837C36.1814 11.2211 36.3638 11.6254 36.3638 12.0966C36.3638 12.5731 36.1814 12.9828 35.8164 13.3255C35.4569 13.6628 35.0222 13.8315 34.5123 13.8315Z" fill="#061917"/>
        <path d="M48.3472 18.9399L45.2077 19.1326C45.154 18.8649 45.0386 18.6239 44.8615 18.4098C44.6844 18.1902 44.451 18.0162 44.1612 17.8877C43.8768 17.7538 43.536 17.6869 43.1388 17.6869C42.6075 17.6869 42.1594 17.7993 41.7945 18.0242C41.4295 18.2438 41.2471 18.5383 41.2471 18.9077C41.2471 19.2022 41.3651 19.4512 41.6013 19.6547C41.8374 19.8582 42.2426 20.0215 42.8168 20.1447L45.0547 20.5945C46.2569 20.8408 47.1531 21.237 47.7435 21.7832C48.3338 22.3294 48.629 23.0469 48.629 23.9358C48.629 24.7444 48.3901 25.4538 47.9125 26.0643C47.4402 26.6747 46.7909 27.1513 45.9644 27.494C45.1433 27.8313 44.1961 28 43.1227 28C41.4859 28 40.1818 27.66 39.2104 26.9799C38.2444 26.2945 37.6782 25.3628 37.5119 24.1848L40.8848 24.0081C40.9868 24.5061 41.2337 24.8862 41.6254 25.1486C42.0172 25.4057 42.519 25.5342 43.1308 25.5342C43.7319 25.5342 44.2149 25.419 44.5798 25.1888C44.9501 24.9532 45.1379 24.6506 45.1433 24.2812C45.1379 23.9706 45.0064 23.7163 44.7488 23.5181C44.4912 23.3146 44.0941 23.1594 43.5574 23.0523L41.4161 22.6266C40.2086 22.3856 39.3097 21.9679 38.7194 21.3736C38.1344 20.7792 37.8419 20.0215 37.8419 19.1005C37.8419 18.308 38.0566 17.6253 38.4859 17.0523C38.9206 16.4794 39.5297 16.0376 40.3133 15.7271C41.1022 15.4165 42.0252 15.2612 43.0825 15.2612C44.6442 15.2612 45.8732 15.5905 46.7694 16.2491C47.671 16.9078 48.1969 17.8047 48.3472 18.9399Z" fill="#061917"/>
        <path d="M60.1696 18.9399L57.0301 19.1326C56.9764 18.8649 56.861 18.6239 56.6839 18.4098C56.5068 18.1902 56.2734 18.0162 55.9836 17.8877C55.6991 17.7538 55.3584 17.6869 54.9612 17.6869C54.4299 17.6869 53.9818 17.7993 53.6169 18.0242C53.2519 18.2438 53.0695 18.5383 53.0695 18.9077C53.0695 19.2022 53.1875 19.4512 53.4237 19.6547C53.6598 19.8582 54.065 20.0215 54.6392 20.1447L56.8771 20.5945C58.0793 20.8408 58.9755 21.237 59.5658 21.7832C60.1562 22.3294 60.4514 23.0469 60.4514 23.9358C60.4514 24.7444 60.2125 25.4538 59.7349 26.0643C59.2626 26.6747 58.6133 27.1513 57.7868 27.494C56.9657 27.8313 56.0185 28 54.9451 28C53.3083 28 52.0042 27.66 51.0328 26.9799C50.0668 26.2945 49.5006 25.3628 49.3342 24.1848L52.7072 24.0081C52.8092 24.5061 53.056 24.8862 53.4478 25.1486C53.8396 25.4057 54.3414 25.5342 54.9532 25.5342C55.5542 25.5342 56.0372 25.419 56.4022 25.1888C56.7725 24.9532 56.9603 24.6506 56.9657 24.2812C56.9603 23.9706 56.8288 23.7163 56.5712 23.5181C56.3136 23.3146 55.9165 23.1594 55.3798 23.0523L53.2385 22.6266C52.031 22.3856 51.1321 21.9679 50.5417 21.3736C49.9568 20.7792 49.6643 20.0215 49.6643 19.1005C49.6643 18.308 49.879 17.6253 50.3083 17.0523C50.743 16.4794 51.3521 16.0376 52.1357 15.7271C52.9246 15.4165 53.8476 15.2612 54.9049 15.2612C56.4666 15.2612 57.6955 15.5905 58.5918 16.2491C59.4934 16.9078 60.0193 17.8047 60.1696 18.9399Z" fill="#061917"/>
        <path d="M64.7047 27.759L59.9873 11.3094H63.795L66.524 22.739H66.6608L69.6716 11.3094H72.9318L75.9345 22.7631H76.0794L82.2087 0H86.0164L77.8987 27.759H74.5016L71.3621 17.0041H71.2333L68.1018 27.759H64.7047Z" fill="#061917"/>
        <path d="M87.7689 28C86.5185 28 85.4371 27.7349 84.5248 27.2048C83.6178 26.6694 82.9174 25.9251 82.4237 24.9719C81.93 24.0134 81.6831 22.9023 81.6831 21.6386C81.6831 20.3642 81.93 19.2504 82.4237 18.2973C82.9174 17.3388 83.6178 16.5945 84.5248 16.0644C85.4371 15.5289 86.5185 15.2612 87.7689 15.2612C89.0194 15.2612 90.0981 15.5289 91.0051 16.0644C91.9174 16.5945 92.6204 17.3388 93.1142 18.2973C93.6079 19.2504 93.8548 20.3642 93.8548 21.6386C93.8548 22.9023 93.6079 24.0134 93.1142 24.9719C92.6204 25.9251 91.9174 26.6694 91.0051 27.2048C90.0981 27.7349 89.0194 28 87.7689 28ZM87.785 25.3494C88.3539 25.3494 88.8289 25.1888 89.2099 24.8675C89.5909 24.5409 89.8781 24.0964 90.0713 23.5342C90.2698 22.9719 90.3691 22.3321 90.3691 21.6145C90.3691 20.897 90.2698 20.2571 90.0713 19.6949C89.8781 19.1326 89.5909 18.6882 89.2099 18.3616C88.8289 18.0349 88.3539 17.8716 87.785 17.8716C87.2108 17.8716 86.7278 18.0349 86.336 18.3616C85.9496 18.6882 85.6572 19.1326 85.4586 19.6949C85.2654 20.2571 85.1688 20.897 85.1688 21.6145C85.1688 22.3321 85.2654 22.9719 85.4586 23.5342C85.6572 24.0964 85.9496 24.5409 86.336 24.8675C86.7278 25.1888 87.2108 25.3494 87.785 25.3494Z" fill="#061917"/>
        <path d="M95.1779 27.759V15.4218H98.5026V17.5744H98.6314C98.8568 16.8087 99.2351 16.2304 99.7664 15.8395C100.298 15.4433 100.91 15.2451 101.602 15.2451C101.774 15.2451 101.959 15.2558 102.157 15.2773C102.356 15.2987 102.53 15.3281 102.681 15.3656V18.4017C102.52 18.3535 102.297 18.3107 102.012 18.2732C101.728 18.2357 101.468 18.217 101.232 18.217C100.727 18.217 100.276 18.3268 99.8791 18.5463C99.4874 18.7605 99.1761 19.0603 98.9453 19.4459C98.7199 19.8314 98.6072 20.2759 98.6072 20.7792V27.759H95.1779Z" fill="#061917"/>
        <path d="M106.789 15.4218L109.059 19.735L111.386 15.4218H114.903L111.321 21.5904L115 27.759H111.498L109.059 23.494L106.66 27.759H103.118L106.789 21.5904L103.247 15.4218H106.789Z" fill="#061917"/>
        <path d="M79.5726 6.27136L81.1134 0.61681H75.0388V6.27136H79.5726Z" fill="#CA1F32"/>
        <path d="M77.4426 5.14045V1.74772H78.3023V5.14045H77.4426ZM76.1723 3.87297V3.0152H79.5726V3.87297H76.1723Z" fill="white"/>
        <path d="M9.47491 16.0403C9.41051 15.3924 9.13412 14.889 8.64575 14.5303C8.15738 14.1715 7.49459 13.9921 6.65739 13.9921C6.08852 13.9921 5.6082 14.0725 5.21643 14.2331C4.82466 14.3884 4.52413 14.6052 4.31483 14.8837C4.11089 15.1621 4.00892 15.4781 4.00892 15.8315C3.99819 16.126 4.05991 16.383 4.19408 16.6025C4.33361 16.8221 4.52413 17.0122 4.76563 17.1728C5.00713 17.3281 5.2862 17.4647 5.60283 17.5825C5.91947 17.6949 6.25757 17.7913 6.61714 17.8716L8.09835 18.225C8.81749 18.3857 9.47759 18.5998 10.0787 18.8676C10.6797 19.1353 11.2003 19.4646 11.6404 19.8555C12.0804 20.2464 12.4212 20.7069 12.6627 21.237C12.9096 21.7671 13.0357 22.3749 13.0411 23.0603C13.0357 24.067 12.7781 24.9398 12.2683 25.6787C11.7638 26.4123 11.0339 26.9826 10.0787 27.3896C9.12875 27.7912 7.98296 27.992 6.64129 27.992C5.31035 27.992 4.15114 27.7885 3.16367 27.3815C2.18156 26.9746 1.41413 26.3722 0.861355 25.5743C0.313952 24.7711 0.0268335 23.7778 0 22.5944H3.37297C3.41054 23.146 3.56885 23.6065 3.84792 23.976C4.13236 24.3401 4.51071 24.6158 4.98298 24.8033C5.46062 24.9853 5.99997 25.0763 6.60104 25.0763C7.19138 25.0763 7.7039 24.9907 8.1386 24.8193C8.57867 24.648 8.91945 24.4097 9.16095 24.1045C9.40246 23.7992 9.52321 23.4485 9.52321 23.0523C9.52321 22.6828 9.41319 22.3722 9.19315 22.1206C8.97849 21.8689 8.66185 21.6547 8.24325 21.478C7.83001 21.3013 7.32286 21.1406 6.72179 20.9961L4.92663 20.5463C3.53665 20.2089 2.43916 19.6815 1.63416 18.964C0.829155 18.2464 0.429336 17.2799 0.434703 16.0644C0.429336 15.0684 0.694987 14.1983 1.23166 13.454C1.77369 12.7097 2.51698 12.1287 3.46152 11.711C4.40606 11.2934 5.4794 11.0845 6.68154 11.0845C7.90515 11.0845 8.97312 11.2934 9.88546 11.711C10.8032 12.1287 11.5169 12.7097 12.0268 13.454C12.5366 14.1983 12.7996 15.0604 12.8157 16.0403H9.47491Z" stroke="white" stroke-width="0.2" mask="url(#path-1-outside-1_531_628)"/>
        <path d="M16.8537 27.759L13.4887 15.4218H16.9583L18.8742 23.7109H18.9869L20.9833 15.4218H24.3885L26.4171 23.6627H26.5218L28.4055 15.4218H31.867L28.5101 27.759H24.8796L22.7543 20.0001H22.6014L20.4762 27.759H16.8537Z" stroke="white" stroke-width="0.2" mask="url(#path-1-outside-1_531_628)"/>
        <path d="M32.7896 27.759V15.4218H36.2189V27.759H32.7896ZM34.5123 13.8315C34.0025 13.8315 33.5651 13.6628 33.2002 13.3255C32.8406 12.9828 32.6608 12.5731 32.6608 12.0966C32.6608 11.6254 32.8406 11.2211 33.2002 10.8837C33.5651 10.541 34.0025 10.3697 34.5123 10.3697C35.0222 10.3697 35.4569 10.541 35.8164 10.8837C36.1814 11.2211 36.3638 11.6254 36.3638 12.0966C36.3638 12.5731 36.1814 12.9828 35.8164 13.3255C35.4569 13.6628 35.0222 13.8315 34.5123 13.8315Z" stroke="white" stroke-width="0.2" mask="url(#path-1-outside-1_531_628)"/>
        <path d="M48.3472 18.9399L45.2077 19.1326C45.154 18.8649 45.0386 18.6239 44.8615 18.4098C44.6844 18.1902 44.451 18.0162 44.1612 17.8877C43.8768 17.7538 43.536 17.6869 43.1388 17.6869C42.6075 17.6869 42.1594 17.7993 41.7945 18.0242C41.4295 18.2438 41.2471 18.5383 41.2471 18.9077C41.2471 19.2022 41.3651 19.4512 41.6013 19.6547C41.8374 19.8582 42.2426 20.0215 42.8168 20.1447L45.0547 20.5945C46.2569 20.8408 47.1531 21.237 47.7435 21.7832C48.3338 22.3294 48.629 23.0469 48.629 23.9358C48.629 24.7444 48.3901 25.4538 47.9125 26.0643C47.4402 26.6747 46.7909 27.1513 45.9644 27.494C45.1433 27.8313 44.1961 28 43.1227 28C41.4859 28 40.1818 27.66 39.2104 26.9799C38.2444 26.2945 37.6782 25.3628 37.5119 24.1848L40.8848 24.0081C40.9868 24.5061 41.2337 24.8862 41.6254 25.1486C42.0172 25.4057 42.519 25.5342 43.1308 25.5342C43.7319 25.5342 44.2149 25.419 44.5798 25.1888C44.9501 24.9532 45.1379 24.6506 45.1433 24.2812C45.1379 23.9706 45.0064 23.7163 44.7488 23.5181C44.4912 23.3146 44.0941 23.1594 43.5574 23.0523L41.4161 22.6266C40.2086 22.3856 39.3097 21.9679 38.7194 21.3736C38.1344 20.7792 37.8419 20.0215 37.8419 19.1005C37.8419 18.308 38.0566 17.6253 38.4859 17.0523C38.9206 16.4794 39.5297 16.0376 40.3133 15.7271C41.1022 15.4165 42.0252 15.2612 43.0825 15.2612C44.6442 15.2612 45.8732 15.5905 46.7694 16.2491C47.671 16.9078 48.1969 17.8047 48.3472 18.9399Z" stroke="white" stroke-width="0.2" mask="url(#path-1-outside-1_531_628)"/>
        <path d="M60.1696 18.9399L57.0301 19.1326C56.9764 18.8649 56.861 18.6239 56.6839 18.4098C56.5068 18.1902 56.2734 18.0162 55.9836 17.8877C55.6991 17.7538 55.3584 17.6869 54.9612 17.6869C54.4299 17.6869 53.9818 17.7993 53.6169 18.0242C53.2519 18.2438 53.0695 18.5383 53.0695 18.9077C53.0695 19.2022 53.1875 19.4512 53.4237 19.6547C53.6598 19.8582 54.065 20.0215 54.6392 20.1447L56.8771 20.5945C58.0793 20.8408 58.9755 21.237 59.5658 21.7832C60.1562 22.3294 60.4514 23.0469 60.4514 23.9358C60.4514 24.7444 60.2125 25.4538 59.7349 26.0643C59.2626 26.6747 58.6133 27.1513 57.7868 27.494C56.9657 27.8313 56.0185 28 54.9451 28C53.3083 28 52.0042 27.66 51.0328 26.9799C50.0668 26.2945 49.5006 25.3628 49.3342 24.1848L52.7072 24.0081C52.8092 24.5061 53.056 24.8862 53.4478 25.1486C53.8396 25.4057 54.3414 25.5342 54.9532 25.5342C55.5542 25.5342 56.0372 25.419 56.4022 25.1888C56.7725 24.9532 56.9603 24.6506 56.9657 24.2812C56.9603 23.9706 56.8288 23.7163 56.5712 23.5181C56.3136 23.3146 55.9165 23.1594 55.3798 23.0523L53.2385 22.6266C52.031 22.3856 51.1321 21.9679 50.5417 21.3736C49.9568 20.7792 49.6643 20.0215 49.6643 19.1005C49.6643 18.308 49.879 17.6253 50.3083 17.0523C50.743 16.4794 51.3521 16.0376 52.1357 15.7271C52.9246 15.4165 53.8476 15.2612 54.9049 15.2612C56.4666 15.2612 57.6955 15.5905 58.5918 16.2491C59.4934 16.9078 60.0193 17.8047 60.1696 18.9399Z" stroke="white" stroke-width="0.2" mask="url(#path-1-outside-1_531_628)"/>
        <path d="M64.7047 27.759L59.9873 11.3094H63.795L66.524 22.739H66.6608L69.6716 11.3094H72.9318L75.9345 22.7631H76.0794L82.2087 0H86.0164L77.8987 27.759H74.5016L71.3621 17.0041H71.2333L68.1018 27.759H64.7047Z" stroke="white" stroke-width="0.2" mask="url(#path-1-outside-1_531_628)"/>
        <path d="M87.7689 28C86.5185 28 85.4371 27.7349 84.5248 27.2048C83.6178 26.6694 82.9174 25.9251 82.4237 24.9719C81.93 24.0134 81.6831 22.9023 81.6831 21.6386C81.6831 20.3642 81.93 19.2504 82.4237 18.2973C82.9174 17.3388 83.6178 16.5945 84.5248 16.0644C85.4371 15.5289 86.5185 15.2612 87.7689 15.2612C89.0194 15.2612 90.0981 15.5289 91.0051 16.0644C91.9174 16.5945 92.6204 17.3388 93.1142 18.2973C93.6079 19.2504 93.8548 20.3642 93.8548 21.6386C93.8548 22.9023 93.6079 24.0134 93.1142 24.9719C92.6204 25.9251 91.9174 26.6694 91.0051 27.2048C90.0981 27.7349 89.0194 28 87.7689 28ZM87.785 25.3494C88.3539 25.3494 88.8289 25.1888 89.2099 24.8675C89.5909 24.5409 89.8781 24.0964 90.0713 23.5342C90.2698 22.9719 90.3691 22.3321 90.3691 21.6145C90.3691 20.897 90.2698 20.2571 90.0713 19.6949C89.8781 19.1326 89.5909 18.6882 89.2099 18.3616C88.8289 18.0349 88.3539 17.8716 87.785 17.8716C87.2108 17.8716 86.7278 18.0349 86.336 18.3616C85.9496 18.6882 85.6572 19.1326 85.4586 19.6949C85.2654 20.2571 85.1688 20.897 85.1688 21.6145C85.1688 22.3321 85.2654 22.9719 85.4586 23.5342C85.6572 24.0964 85.9496 24.5409 86.336 24.8675C86.7278 25.1888 87.2108 25.3494 87.785 25.3494Z" stroke="white" stroke-width="0.2" mask="url(#path-1-outside-1_531_628)"/>
        <path d="M95.1779 27.759V15.4218H98.5026V17.5744H98.6314C98.8568 16.8087 99.2351 16.2304 99.7664 15.8395C100.298 15.4433 100.91 15.2451 101.602 15.2451C101.774 15.2451 101.959 15.2558 102.157 15.2773C102.356 15.2987 102.53 15.3281 102.681 15.3656V18.4017C102.52 18.3535 102.297 18.3107 102.012 18.2732C101.728 18.2357 101.468 18.217 101.232 18.217C100.727 18.217 100.276 18.3268 99.8791 18.5463C99.4874 18.7605 99.1761 19.0603 98.9453 19.4459C98.7199 19.8314 98.6072 20.2759 98.6072 20.7792V27.759H95.1779Z" stroke="white" stroke-width="0.2" mask="url(#path-1-outside-1_531_628)"/>
        <path d="M106.789 15.4218L109.059 19.735L111.386 15.4218H114.903L111.321 21.5904L115 27.759H111.498L109.059 23.494L106.66 27.759H103.118L106.789 21.5904L103.247 15.4218H106.789Z" stroke="white" stroke-width="0.2" mask="url(#path-1-outside-1_531_628)"/>
        <path d="M79.5726 6.27136L81.1134 0.61681H75.0388V6.27136H79.5726Z" stroke="white" stroke-width="0.2" mask="url(#path-1-outside-1_531_628)"/>
        <path d="M77.4426 5.14045V1.74772H78.3023V5.14045H77.4426ZM76.1723 3.87297V3.0152H79.5726V3.87297H76.1723Z" stroke="white" stroke-width="0.2" mask="url(#path-1-outside-1_531_628)"/>
    </symbol>
    <symbol id="arrow-corner-2" width="8" height="11" viewBox="0 0 8 11" fill="none">
        <path d="M0.668976 0.743164L5.66898 5.24316L0.668976 9.74316" stroke="currentColor" stroke-width="2"/>
    </symbol>
</svg>