<svg xmlns="http://www.w3.org/2000/svg">
    <symbol id="arrow" width="37" height="37" viewBox="0 0 37 37" fill="none">
        <rect width="37" height="37" rx="18.5" fill="white"/>
        <path d="M13.8431 23.1568L23.1568 13.8431M23.1568 13.8431H17.4999M23.1568 13.8431V19.4999" stroke="currentColor"/>
    </symbol>
    <symbol id="arrow-corner" width="48" height="48" viewBox="0 0 48 48" fill="none">
        <path d="M19.5 17L28.5 24L19.5 31" stroke="currentColor" stroke-width="2"/>
    </symbol>
    <symbol id="arrow-down" viewBox="0 0 16 10" fill="none">
        <path d="M0.707153 0.707153L7.70715 7.70715L14.7072 0.707153" stroke="currentColor" stroke-width="2"/>
    </symbol>
    <symbol id="star" viewBox="0 0 18 17" fill="none">
        <path d="M8.55859 0L10.5792 6.21885H17.1181L11.828 10.0623L13.8487 16.2812L8.55859 12.4377L3.26853 16.2812L5.28915 10.0623L-0.000914574 6.21885H6.53797L8.55859 0Z" fill="#FBBC05"/>
    </symbol>
    <symbol id="star-gradient" viewBox="0 0 18 17" fill="none">
        <path d="M8.55859 0L10.5792 6.21885H17.1181L11.828 10.0623L13.8487 16.2812L8.55859 12.4377L3.26853 16.2812L5.28915 10.0623L-0.000914574 6.21885H6.53797L8.55859 0Z" fill="url(#paint0_linear_338_1317)"/>
        <defs>
        <linearGradient id="paint0_linear_338_1317" x1="-0.441406" y1="6.3" x2="17.5586" y2="6.3" gradientUnits="userSpaceOnUse">
            <stop offset="0.57605" stop-color="#FBBC05"/>
            <stop offset="0.615846" stop-color="#FFF4D5"/>
        </linearGradient>
        </defs>
    </symbol>
    <symbol id="checked" viewBox="0 0 16 13" fill="none">
        <path d="M0.707031 4.70703L4.70703 8.70703L12.707 0.707031" stroke="currentColor" stroke-width="2"/>
    </symbol>
    <symbol id="marker" viewBox="0 0 8 12" fill="none">
        <path d="M4 0C1.901 0 0 1.7015 0 3.801C0 5.9 1.7345 8.406 4 12C6.2655 8.406 8 5.9 8 3.801C8 1.7015 6.0995 0 4 0ZM4 5.5C3.1715 5.5 2.5 4.8285 2.5 4C2.5 3.1715 3.1715 2.5 4 2.5C4.8285 2.5 5.5 3.1715 5.5 4C5.5 4.8285 4.8285 5.5 4 5.5Z" fill="currentColor"/>
    </symbol>
    <symbol id="phone" viewBox="0 0 11 11" fill="none">
        <path d="M9.9383 10.4881C9.71826 10.8243 9.33609 11.0213 8.93076 10.9982C8.52543 10.975 8.00429 10.917 7.64529 10.8243C6.04713 10.4069 4.39108 9.4099 2.9898 8.00713C1.58852 6.60436 0.592562 4.94654 0.175653 3.34669C0.0830059 2.9873 0.0366826 2.4772 0.00194013 2.07144C-0.0212215 1.67727 0.164077 1.2947 0.499921 1.07443L1.92436 0.123795C2.29495 -0.119661 2.79292 0.00785908 2.9898 0.402026L4.14788 2.63951C4.31001 2.95252 4.22895 3.34669 3.95101 3.56696L2.90873 4.37848C3.32564 5.15522 3.71939 5.78125 4.48372 6.5348C5.19015 7.24198 5.80393 7.65934 6.60301 8.08828L7.42525 7.0333C7.64529 6.75507 8.03904 6.66232 8.35172 6.83622L10.5984 7.99553C10.9921 8.19262 11.1195 8.69113 10.8763 9.06211L9.9383 10.4881Z" fill="currentColor"/>
    </symbol>
    <symbol id="letter" viewBox="0 0 16 13" fill="none">
        <path d="M15.9587 1.78791C15.8866 1.4246 15.7255 1.09213 15.5005 0.81747C15.4531 0.757627 15.4035 0.704033 15.3498 0.650439C14.9512 0.249875 14.3918 0 13.7806 0H2.21941C1.60825 0 1.05081 0.249875 0.650345 0.650439C0.596751 0.704033 0.547189 0.757627 0.499626 0.81747C0.274532 1.0921 0.113438 1.4246 0.0433126 1.78791C0.0145 1.92813 0 2.07304 0 2.21954V10.3393C0 10.6508 0.0660626 10.9503 0.183875 11.2207C0.293157 11.4788 0.454282 11.7124 0.650314 11.9082C0.700001 11.9578 0.749345 12.0033 0.803189 12.0486C1.18713 12.3666 1.68272 12.5587 2.21941 12.5587H13.7806C14.3175 12.5587 14.8152 12.3666 15.197 12.0466C15.2507 12.0033 15.3002 11.9578 15.3498 11.9082C15.5457 11.7124 15.7068 11.4788 15.8184 11.2207V11.2187C15.9362 10.9483 16 10.6508 16 10.3394V2.21954C16 2.07304 15.9858 1.92813 15.9587 1.78791ZM1.45341 1.45341C1.65169 1.25535 1.91797 1.13544 2.21941 1.13544H13.7806C14.0821 1.13544 14.3507 1.25535 14.5466 1.45341C14.5817 1.48869 14.6147 1.528 14.6439 1.56707L8.58427 6.84817C8.41714 6.99464 8.2107 7.06698 8.00002 7.06698C7.79145 7.06698 7.58514 6.99464 7.4158 6.84817L1.3585 1.56482C1.38532 1.52575 1.41835 1.48869 1.45341 1.45341ZM1.13544 10.3393V2.73979L5.52057 6.56526L1.13766 10.3867C1.13544 10.3722 1.13544 10.3559 1.13544 10.3393ZM13.7806 11.423H2.21941C2.02313 11.423 1.83947 11.3714 1.68272 11.2807L6.30704 7.25076L6.73876 7.62633C7.10005 7.94027 7.55214 8.09927 8.00002 8.09927C8.4502 8.09927 8.90227 7.94027 9.26352 7.62633L9.69502 7.25076L14.3175 11.2807C14.1606 11.3714 13.9769 11.423 13.7806 11.423ZM14.8646 10.3393C14.8646 10.3559 14.8646 10.3722 14.8625 10.3867L10.4796 6.56748L14.8646 2.74182V10.3393Z" fill="currentColor"/>
    </symbol>
    <symbol id="remove" viewBox="0 0 22 22" fill="none">
        <path d="M1.06055 1.06055L20.1194 20.1194" stroke="currentColor" stroke-width="3"/>
        <path d="M20.1191 1.06055L1.06032 20.1194" stroke="currentColor" stroke-width="3"/>
    </symbol>
    <symbol id="logo" viewBox="0 0 94 23" fill="none" xmlns="http://www.w3.org/2000/svg">
        <mask id="path-1-outside-1_531_628" maskUnits="userSpaceOnUse" x="-1" y="-1" fill="black">
        <rect fill="white" x="-1" y="-1" width="96" height="24"/>
        <path d="M7.74471 13.1112C7.69207 12.5816 7.46615 12.1702 7.06696 11.8769C6.66777 11.5837 6.12602 11.437 5.44169 11.437C4.9767 11.437 4.58409 11.5027 4.26387 11.634C3.94364 11.7609 3.69798 11.9382 3.5269 12.1658C3.36021 12.3934 3.27686 12.6516 3.27686 12.9405C3.26809 13.1812 3.31853 13.3913 3.4282 13.5708C3.54225 13.7502 3.69798 13.9056 3.89538 14.0369C4.09278 14.1638 4.32089 14.2755 4.57971 14.3717C4.83852 14.4637 5.11488 14.5424 5.40879 14.6081L6.61952 14.897C7.20734 15.0283 7.7469 15.2034 8.23821 15.4222C8.72952 15.641 9.15503 15.9102 9.51474 16.2297C9.87444 16.5492 10.153 16.9257 10.3504 17.359C10.5522 17.7923 10.6553 18.289 10.6597 18.8493C10.6553 19.6721 10.4447 20.3856 10.028 20.9896C9.61563 21.5892 9.01904 22.0553 8.23821 22.388C7.46176 22.7163 6.52521 22.8804 5.42853 22.8804C4.34063 22.8804 3.39311 22.7141 2.58596 22.3814C1.78319 22.0488 1.15589 21.5564 0.704064 20.9042C0.256622 20.2477 0.0219335 19.4358 0 18.4685H2.75704C2.78774 18.9193 2.91715 19.2957 3.14526 19.5977C3.37775 19.8954 3.68701 20.1208 4.07304 20.274C4.46346 20.4228 4.90432 20.4972 5.39563 20.4972C5.87817 20.4972 6.2971 20.4272 6.65242 20.2871C7.01213 20.147 7.29068 19.9523 7.48808 19.7028C7.68549 19.4533 7.78419 19.1666 7.78419 18.8427C7.78419 18.5407 7.69426 18.2869 7.5144 18.0811C7.33894 17.8754 7.08012 17.7004 6.73796 17.5559C6.40018 17.4115 5.98564 17.2802 5.49433 17.162L4.02698 16.7943C2.89083 16.5186 1.99375 16.0875 1.33575 15.501C0.677744 14.9145 0.350935 14.1245 0.355322 13.1309C0.350935 12.3168 0.568077 11.6056 1.00675 10.9972C1.4498 10.3888 2.05736 9.91389 2.82942 9.5725C3.60147 9.2311 4.47881 9.0604 5.46143 9.0604C6.4616 9.0604 7.33455 9.2311 8.08029 9.5725C8.83041 9.91389 9.41384 10.3888 9.83058 10.9972C10.2473 11.6056 10.4623 12.3102 10.4754 13.1112H7.74471Z"/>
        <path d="M13.776 22.69L11.0256 12.6057H13.8616L15.4276 19.3811H15.5197L17.1516 12.6057H19.935L21.5931 19.3417H21.6787L23.2184 12.6057H26.0478L23.3039 22.69H20.3363L18.5992 16.3479H18.4742L16.7371 22.69H13.776Z"/>
        <path d="M26.8019 22.69V12.6057H29.605V22.69H26.8019ZM28.2101 11.3057C27.7933 11.3057 27.4358 11.1679 27.1375 10.8921C26.8436 10.612 26.6967 10.2772 26.6967 9.88763C26.6967 9.50247 26.8436 9.17201 27.1375 8.89627C27.4358 8.61615 27.7933 8.47609 28.2101 8.47609C28.6268 8.47609 28.9821 8.61615 29.276 8.89627C29.5743 9.17201 29.7235 9.50247 29.7235 9.88763C29.7235 10.2772 29.5743 10.612 29.276 10.8921C28.9821 11.1679 28.6268 11.3057 28.2101 11.3057Z"/>
        <path d="M39.5186 15.4813L36.9524 15.6389C36.9085 15.42 36.8142 15.223 36.6694 15.048C36.5247 14.8685 36.3339 14.7263 36.097 14.6212C35.8645 14.5118 35.5859 14.4571 35.2613 14.4571C34.827 14.4571 34.4607 14.549 34.1624 14.7328C33.8641 14.9123 33.715 15.153 33.715 15.455C33.715 15.6957 33.8115 15.8993 34.0045 16.0656C34.1975 16.2319 34.5287 16.3654 34.9981 16.4661L36.8274 16.8337C37.81 17.0351 38.5426 17.359 39.0251 17.8054C39.5076 18.2518 39.7489 18.8383 39.7489 19.5649C39.7489 20.2258 39.5537 20.8058 39.1633 21.3047C38.7772 21.8037 38.2465 22.1932 37.5709 22.4733C36.8997 22.7491 36.1255 22.887 35.2481 22.887C33.9102 22.887 32.8442 22.609 32.0502 22.0532C31.2606 21.4929 30.7978 20.7313 30.6619 19.7684L33.4189 19.624C33.5022 20.031 33.704 20.3418 34.0243 20.5563C34.3445 20.7664 34.7546 20.8714 35.2547 20.8714C35.746 20.8714 36.1408 20.7773 36.4391 20.5891C36.7418 20.3965 36.8954 20.1492 36.8997 19.8472C36.8954 19.5934 36.7879 19.3855 36.5773 19.2235C36.3668 19.0572 36.0421 18.9303 35.6035 18.8427L33.8532 18.4948C32.8662 18.2978 32.1314 17.9564 31.6489 17.4706C31.1707 16.9847 30.9316 16.3654 30.9316 15.6126C30.9316 14.9648 31.1071 14.4068 31.458 13.9384C31.8134 13.4701 32.3113 13.109 32.9517 12.8552C33.5966 12.6013 34.3511 12.4744 35.2152 12.4744C36.4918 12.4744 37.4963 12.7435 38.2289 13.2819C38.9659 13.8203 39.3958 14.5534 39.5186 15.4813Z"/>
        <path d="M49.1821 15.4813L46.6159 15.6389C46.572 15.42 46.4777 15.223 46.3329 15.048C46.1882 14.8685 45.9974 14.7263 45.7605 14.6212C45.528 14.5118 45.2494 14.4571 44.9248 14.4571C44.4905 14.4571 44.1242 14.549 43.826 14.7328C43.5277 14.9123 43.3785 15.153 43.3785 15.455C43.3785 15.6957 43.475 15.8993 43.668 16.0656C43.861 16.2319 44.1922 16.3654 44.6616 16.4661L46.4909 16.8337C47.4735 17.0351 48.2061 17.359 48.6886 17.8054C49.1711 18.2518 49.4124 18.8383 49.4124 19.5649C49.4124 20.2258 49.2172 20.8058 48.8268 21.3047C48.4408 21.8037 47.91 22.1932 47.2344 22.4733C46.5632 22.7491 45.789 22.887 44.9117 22.887C43.5737 22.887 42.5077 22.609 41.7138 22.0532C40.9242 21.4929 40.4614 20.7313 40.3254 19.7684L43.0824 19.624C43.1658 20.031 43.3675 20.3418 43.6878 20.5563C44.008 20.7664 44.4182 20.8714 44.9182 20.8714C45.4095 20.8714 45.8043 20.7773 46.1026 20.5891C46.4053 20.3965 46.5589 20.1492 46.5633 19.8472C46.5589 19.5934 46.4514 19.3855 46.2408 19.2235C46.0303 19.0572 45.7057 18.9303 45.267 18.8427L43.5167 18.4948C42.5297 18.2978 41.7949 17.9564 41.3124 17.4706C40.8342 16.9847 40.5951 16.3654 40.5951 15.6126C40.5951 14.9648 40.7706 14.4068 41.1216 13.9384C41.4769 13.4701 41.9748 13.109 42.6152 12.8552C43.2601 12.6013 44.0146 12.4744 44.8788 12.4744C46.1553 12.4744 47.1598 12.7435 47.8924 13.2819C48.6294 13.8203 49.0593 14.5534 49.1821 15.4813Z"/>
        <path d="M52.889 22.69L49.0331 9.24423H52.1455L54.3761 18.5867H54.488L56.9489 9.24423H59.6138L62.0682 18.6064H62.1866L67.1967 0H70.309L63.6737 22.69H60.8969L58.3307 13.899H58.2254L55.6658 22.69H52.889Z"/>
        <path d="M71.7416 22.887C70.7195 22.887 69.8355 22.6703 69.0898 22.237C68.3485 21.7993 67.776 21.1909 67.3724 20.4118C66.9688 19.6284 66.7671 18.7202 66.7671 17.6872C66.7671 16.6455 66.9688 15.7351 67.3724 14.9561C67.776 14.1726 68.3485 13.5642 69.0898 13.1309C69.8355 12.6932 70.7195 12.4744 71.7416 12.4744C72.7637 12.4744 73.6454 12.6932 74.3867 13.1309C75.1325 13.5642 75.7071 14.1726 76.1107 14.9561C76.5143 15.7351 76.7161 16.6455 76.7161 17.6872C76.7161 18.7202 76.5143 19.6284 76.1107 20.4118C75.7071 21.1909 75.1325 21.7993 74.3867 22.237C73.6454 22.6703 72.7637 22.887 71.7416 22.887ZM71.7547 20.7204C72.2197 20.7204 72.6079 20.5891 72.9194 20.3265C73.2308 20.0595 73.4655 19.6962 73.6235 19.2366C73.7858 18.7771 73.8669 18.254 73.8669 17.6675C73.8669 17.081 73.7858 16.558 73.6235 16.0984C73.4655 15.6389 73.2308 15.2756 72.9194 15.0086C72.6079 14.7416 72.2197 14.6081 71.7547 14.6081C71.2853 14.6081 70.8905 14.7416 70.5703 15.0086C70.2545 15.2756 70.0154 15.6389 69.8531 16.0984C69.6952 16.558 69.6162 17.081 69.6162 17.6675C69.6162 18.254 69.6952 18.7771 69.8531 19.2366C70.0154 19.6962 70.2545 20.0595 70.5703 20.3265C70.8905 20.5891 71.2853 20.7204 71.7547 20.7204Z"/>
        <path d="M77.7976 22.69V12.6057H80.5151V14.3652H80.6204C80.8047 13.7393 81.1139 13.2666 81.5482 12.9471C81.9825 12.6232 82.4826 12.4612 83.0484 12.4612C83.1888 12.4612 83.3402 12.47 83.5025 12.4875C83.6648 12.505 83.8073 12.5291 83.9302 12.5597V15.0414C83.7986 15.002 83.6165 14.967 83.384 14.9364C83.1515 14.9057 82.9388 14.8904 82.7458 14.8904C82.3334 14.8904 81.9649 14.9801 81.6403 15.1596C81.3201 15.3347 81.0657 15.5798 80.877 15.8949C80.6928 16.21 80.6007 16.5733 80.6007 16.9847V22.69H77.7976Z"/>
        <path d="M87.2884 12.6057L89.1439 16.1313L91.0456 12.6057H93.921L90.9929 17.6478L94 22.69H91.1377L89.1439 19.2038L87.1831 22.69H84.2879L87.2884 17.6478L84.3931 12.6057H87.2884Z"/>
        <path d="M65.042 5.12616L66.3014 0.504175H61.3361V5.12616H65.042Z"/>
        <path d="M63.3009 4.20176V1.42857H64.0036V4.20176H63.3009ZM62.2625 3.16573V2.4646H65.042V3.16573H62.2625Z"/>
        </mask>
        <path d="M7.74471 13.1112C7.69207 12.5816 7.46615 12.1702 7.06696 11.8769C6.66777 11.5837 6.12602 11.437 5.44169 11.437C4.9767 11.437 4.58409 11.5027 4.26387 11.634C3.94364 11.7609 3.69798 11.9382 3.5269 12.1658C3.36021 12.3934 3.27686 12.6516 3.27686 12.9405C3.26809 13.1812 3.31853 13.3913 3.4282 13.5708C3.54225 13.7502 3.69798 13.9056 3.89538 14.0369C4.09278 14.1638 4.32089 14.2755 4.57971 14.3717C4.83852 14.4637 5.11488 14.5424 5.40879 14.6081L6.61952 14.897C7.20734 15.0283 7.7469 15.2034 8.23821 15.4222C8.72952 15.641 9.15503 15.9102 9.51474 16.2297C9.87444 16.5492 10.153 16.9257 10.3504 17.359C10.5522 17.7923 10.6553 18.289 10.6597 18.8493C10.6553 19.6721 10.4447 20.3856 10.028 20.9896C9.61563 21.5892 9.01904 22.0553 8.23821 22.388C7.46176 22.7163 6.52521 22.8804 5.42853 22.8804C4.34063 22.8804 3.39311 22.7141 2.58596 22.3814C1.78319 22.0488 1.15589 21.5564 0.704064 20.9042C0.256622 20.2477 0.0219335 19.4358 0 18.4685H2.75704C2.78774 18.9193 2.91715 19.2957 3.14526 19.5977C3.37775 19.8954 3.68701 20.1208 4.07304 20.274C4.46346 20.4228 4.90432 20.4972 5.39563 20.4972C5.87817 20.4972 6.2971 20.4272 6.65242 20.2871C7.01213 20.147 7.29068 19.9523 7.48808 19.7028C7.68549 19.4533 7.78419 19.1666 7.78419 18.8427C7.78419 18.5407 7.69426 18.2869 7.5144 18.0811C7.33894 17.8754 7.08012 17.7004 6.73796 17.5559C6.40018 17.4115 5.98564 17.2802 5.49433 17.162L4.02698 16.7943C2.89083 16.5186 1.99375 16.0875 1.33575 15.501C0.677744 14.9145 0.350935 14.1245 0.355322 13.1309C0.350935 12.3168 0.568077 11.6056 1.00675 10.9972C1.4498 10.3888 2.05736 9.91389 2.82942 9.5725C3.60147 9.2311 4.47881 9.0604 5.46143 9.0604C6.4616 9.0604 7.33455 9.2311 8.08029 9.5725C8.83041 9.91389 9.41384 10.3888 9.83058 10.9972C10.2473 11.6056 10.4623 12.3102 10.4754 13.1112H7.74471Z" fill="#0A2849"/>
        <path d="M13.776 22.69L11.0256 12.6057H13.8616L15.4276 19.3811H15.5197L17.1516 12.6057H19.935L21.5931 19.3417H21.6787L23.2184 12.6057H26.0478L23.3039 22.69H20.3363L18.5992 16.3479H18.4742L16.7371 22.69H13.776Z" fill="#0A2849"/>
        <path d="M26.8019 22.69V12.6057H29.605V22.69H26.8019ZM28.2101 11.3057C27.7933 11.3057 27.4358 11.1679 27.1375 10.8921C26.8436 10.612 26.6967 10.2772 26.6967 9.88763C26.6967 9.50247 26.8436 9.17201 27.1375 8.89627C27.4358 8.61615 27.7933 8.47609 28.2101 8.47609C28.6268 8.47609 28.9821 8.61615 29.276 8.89627C29.5743 9.17201 29.7235 9.50247 29.7235 9.88763C29.7235 10.2772 29.5743 10.612 29.276 10.8921C28.9821 11.1679 28.6268 11.3057 28.2101 11.3057Z" fill="#0A2849"/>
        <path d="M39.5186 15.4813L36.9524 15.6389C36.9085 15.42 36.8142 15.223 36.6694 15.048C36.5247 14.8685 36.3339 14.7263 36.097 14.6212C35.8645 14.5118 35.5859 14.4571 35.2613 14.4571C34.827 14.4571 34.4607 14.549 34.1624 14.7328C33.8641 14.9123 33.715 15.153 33.715 15.455C33.715 15.6957 33.8115 15.8993 34.0045 16.0656C34.1975 16.2319 34.5287 16.3654 34.9981 16.4661L36.8274 16.8337C37.81 17.0351 38.5426 17.359 39.0251 17.8054C39.5076 18.2518 39.7489 18.8383 39.7489 19.5649C39.7489 20.2258 39.5537 20.8058 39.1633 21.3047C38.7772 21.8037 38.2465 22.1932 37.5709 22.4733C36.8997 22.7491 36.1255 22.887 35.2481 22.887C33.9102 22.887 32.8442 22.609 32.0502 22.0532C31.2606 21.4929 30.7978 20.7313 30.6619 19.7684L33.4189 19.624C33.5022 20.031 33.704 20.3418 34.0243 20.5563C34.3445 20.7664 34.7546 20.8714 35.2547 20.8714C35.746 20.8714 36.1408 20.7773 36.4391 20.5891C36.7418 20.3965 36.8954 20.1492 36.8997 19.8472C36.8954 19.5934 36.7879 19.3855 36.5773 19.2235C36.3668 19.0572 36.0421 18.9303 35.6035 18.8427L33.8532 18.4948C32.8662 18.2978 32.1314 17.9564 31.6489 17.4706C31.1707 16.9847 30.9316 16.3654 30.9316 15.6126C30.9316 14.9648 31.1071 14.4068 31.458 13.9384C31.8134 13.4701 32.3113 13.109 32.9517 12.8552C33.5966 12.6013 34.3511 12.4744 35.2152 12.4744C36.4918 12.4744 37.4963 12.7435 38.2289 13.2819C38.9659 13.8203 39.3958 14.5534 39.5186 15.4813Z" fill="#0A2849"/>
        <path d="M49.1821 15.4813L46.6159 15.6389C46.572 15.42 46.4777 15.223 46.3329 15.048C46.1882 14.8685 45.9974 14.7263 45.7605 14.6212C45.528 14.5118 45.2494 14.4571 44.9248 14.4571C44.4905 14.4571 44.1242 14.549 43.826 14.7328C43.5277 14.9123 43.3785 15.153 43.3785 15.455C43.3785 15.6957 43.475 15.8993 43.668 16.0656C43.861 16.2319 44.1922 16.3654 44.6616 16.4661L46.4909 16.8337C47.4735 17.0351 48.2061 17.359 48.6886 17.8054C49.1711 18.2518 49.4124 18.8383 49.4124 19.5649C49.4124 20.2258 49.2172 20.8058 48.8268 21.3047C48.4408 21.8037 47.91 22.1932 47.2344 22.4733C46.5632 22.7491 45.789 22.887 44.9117 22.887C43.5737 22.887 42.5077 22.609 41.7138 22.0532C40.9242 21.4929 40.4614 20.7313 40.3254 19.7684L43.0824 19.624C43.1658 20.031 43.3675 20.3418 43.6878 20.5563C44.008 20.7664 44.4182 20.8714 44.9182 20.8714C45.4095 20.8714 45.8043 20.7773 46.1026 20.5891C46.4053 20.3965 46.5589 20.1492 46.5633 19.8472C46.5589 19.5934 46.4514 19.3855 46.2408 19.2235C46.0303 19.0572 45.7057 18.9303 45.267 18.8427L43.5167 18.4948C42.5297 18.2978 41.7949 17.9564 41.3124 17.4706C40.8342 16.9847 40.5951 16.3654 40.5951 15.6126C40.5951 14.9648 40.7706 14.4068 41.1216 13.9384C41.4769 13.4701 41.9748 13.109 42.6152 12.8552C43.2601 12.6013 44.0146 12.4744 44.8788 12.4744C46.1553 12.4744 47.1598 12.7435 47.8924 13.2819C48.6294 13.8203 49.0593 14.5534 49.1821 15.4813Z" fill="#0A2849"/>
        <path d="M52.889 22.69L49.0331 9.24423H52.1455L54.3761 18.5867H54.488L56.9489 9.24423H59.6138L62.0682 18.6064H62.1866L67.1967 0H70.309L63.6737 22.69H60.8969L58.3307 13.899H58.2254L55.6658 22.69H52.889Z" fill="#0A2849"/>
        <path d="M71.7416 22.887C70.7195 22.887 69.8355 22.6703 69.0898 22.237C68.3485 21.7993 67.776 21.1909 67.3724 20.4118C66.9688 19.6284 66.7671 18.7202 66.7671 17.6872C66.7671 16.6455 66.9688 15.7351 67.3724 14.9561C67.776 14.1726 68.3485 13.5642 69.0898 13.1309C69.8355 12.6932 70.7195 12.4744 71.7416 12.4744C72.7637 12.4744 73.6454 12.6932 74.3867 13.1309C75.1325 13.5642 75.7071 14.1726 76.1107 14.9561C76.5143 15.7351 76.7161 16.6455 76.7161 17.6872C76.7161 18.7202 76.5143 19.6284 76.1107 20.4118C75.7071 21.1909 75.1325 21.7993 74.3867 22.237C73.6454 22.6703 72.7637 22.887 71.7416 22.887ZM71.7547 20.7204C72.2197 20.7204 72.6079 20.5891 72.9194 20.3265C73.2308 20.0595 73.4655 19.6962 73.6235 19.2366C73.7858 18.7771 73.8669 18.254 73.8669 17.6675C73.8669 17.081 73.7858 16.558 73.6235 16.0984C73.4655 15.6389 73.2308 15.2756 72.9194 15.0086C72.6079 14.7416 72.2197 14.6081 71.7547 14.6081C71.2853 14.6081 70.8905 14.7416 70.5703 15.0086C70.2545 15.2756 70.0154 15.6389 69.8531 16.0984C69.6952 16.558 69.6162 17.081 69.6162 17.6675C69.6162 18.254 69.6952 18.7771 69.8531 19.2366C70.0154 19.6962 70.2545 20.0595 70.5703 20.3265C70.8905 20.5891 71.2853 20.7204 71.7547 20.7204Z" fill="#0A2849"/>
        <path d="M77.7976 22.69V12.6057H80.5151V14.3652H80.6204C80.8047 13.7393 81.1139 13.2666 81.5482 12.9471C81.9825 12.6232 82.4826 12.4612 83.0484 12.4612C83.1888 12.4612 83.3402 12.47 83.5025 12.4875C83.6648 12.505 83.8073 12.5291 83.9302 12.5597V15.0414C83.7986 15.002 83.6165 14.967 83.384 14.9364C83.1515 14.9057 82.9388 14.8904 82.7458 14.8904C82.3334 14.8904 81.9649 14.9801 81.6403 15.1596C81.3201 15.3347 81.0657 15.5798 80.877 15.8949C80.6928 16.21 80.6007 16.5733 80.6007 16.9847V22.69H77.7976Z" fill="#0A2849"/>
        <path d="M87.2884 12.6057L89.1439 16.1313L91.0456 12.6057H93.921L90.9929 17.6478L94 22.69H91.1377L89.1439 19.2038L87.1831 22.69H84.2879L87.2884 17.6478L84.3931 12.6057H87.2884Z" fill="#0A2849"/>
        <path d="M65.042 5.12616L66.3014 0.504175H61.3361V5.12616H65.042Z" fill="#CA1F32"/>
        <path d="M63.3009 4.20176V1.42857H64.0036V4.20176H63.3009ZM62.2625 3.16573V2.4646H65.042V3.16573H62.2625Z" fill="white"/>
        <path d="M7.74471 13.1112C7.69207 12.5816 7.46615 12.1702 7.06696 11.8769C6.66777 11.5837 6.12602 11.437 5.44169 11.437C4.9767 11.437 4.58409 11.5027 4.26387 11.634C3.94364 11.7609 3.69798 11.9382 3.5269 12.1658C3.36021 12.3934 3.27686 12.6516 3.27686 12.9405C3.26809 13.1812 3.31853 13.3913 3.4282 13.5708C3.54225 13.7502 3.69798 13.9056 3.89538 14.0369C4.09278 14.1638 4.32089 14.2755 4.57971 14.3717C4.83852 14.4637 5.11488 14.5424 5.40879 14.6081L6.61952 14.897C7.20734 15.0283 7.7469 15.2034 8.23821 15.4222C8.72952 15.641 9.15503 15.9102 9.51474 16.2297C9.87444 16.5492 10.153 16.9257 10.3504 17.359C10.5522 17.7923 10.6553 18.289 10.6597 18.8493C10.6553 19.6721 10.4447 20.3856 10.028 20.9896C9.61563 21.5892 9.01904 22.0553 8.23821 22.388C7.46176 22.7163 6.52521 22.8804 5.42853 22.8804C4.34063 22.8804 3.39311 22.7141 2.58596 22.3814C1.78319 22.0488 1.15589 21.5564 0.704064 20.9042C0.256622 20.2477 0.0219335 19.4358 0 18.4685H2.75704C2.78774 18.9193 2.91715 19.2957 3.14526 19.5977C3.37775 19.8954 3.68701 20.1208 4.07304 20.274C4.46346 20.4228 4.90432 20.4972 5.39563 20.4972C5.87817 20.4972 6.2971 20.4272 6.65242 20.2871C7.01213 20.147 7.29068 19.9523 7.48808 19.7028C7.68549 19.4533 7.78419 19.1666 7.78419 18.8427C7.78419 18.5407 7.69426 18.2869 7.5144 18.0811C7.33894 17.8754 7.08012 17.7004 6.73796 17.5559C6.40018 17.4115 5.98564 17.2802 5.49433 17.162L4.02698 16.7943C2.89083 16.5186 1.99375 16.0875 1.33575 15.501C0.677744 14.9145 0.350935 14.1245 0.355322 13.1309C0.350935 12.3168 0.568077 11.6056 1.00675 10.9972C1.4498 10.3888 2.05736 9.91389 2.82942 9.5725C3.60147 9.2311 4.47881 9.0604 5.46143 9.0604C6.4616 9.0604 7.33455 9.2311 8.08029 9.5725C8.83041 9.91389 9.41384 10.3888 9.83058 10.9972C10.2473 11.6056 10.4623 12.3102 10.4754 13.1112H7.74471Z" stroke="white" stroke-width="0.2" mask="url(#path-1-outside-1_531_628)"/>
        <path d="M13.776 22.69L11.0256 12.6057H13.8616L15.4276 19.3811H15.5197L17.1516 12.6057H19.935L21.5931 19.3417H21.6787L23.2184 12.6057H26.0478L23.3039 22.69H20.3363L18.5992 16.3479H18.4742L16.7371 22.69H13.776Z" stroke="white" stroke-width="0.2" mask="url(#path-1-outside-1_531_628)"/>
        <path d="M26.8019 22.69V12.6057H29.605V22.69H26.8019ZM28.2101 11.3057C27.7933 11.3057 27.4358 11.1679 27.1375 10.8921C26.8436 10.612 26.6967 10.2772 26.6967 9.88763C26.6967 9.50247 26.8436 9.17201 27.1375 8.89627C27.4358 8.61615 27.7933 8.47609 28.2101 8.47609C28.6268 8.47609 28.9821 8.61615 29.276 8.89627C29.5743 9.17201 29.7235 9.50247 29.7235 9.88763C29.7235 10.2772 29.5743 10.612 29.276 10.8921C28.9821 11.1679 28.6268 11.3057 28.2101 11.3057Z" stroke="white" stroke-width="0.2" mask="url(#path-1-outside-1_531_628)"/>
        <path d="M39.5186 15.4813L36.9524 15.6389C36.9085 15.42 36.8142 15.223 36.6694 15.048C36.5247 14.8685 36.3339 14.7263 36.097 14.6212C35.8645 14.5118 35.5859 14.4571 35.2613 14.4571C34.827 14.4571 34.4607 14.549 34.1624 14.7328C33.8641 14.9123 33.715 15.153 33.715 15.455C33.715 15.6957 33.8115 15.8993 34.0045 16.0656C34.1975 16.2319 34.5287 16.3654 34.9981 16.4661L36.8274 16.8337C37.81 17.0351 38.5426 17.359 39.0251 17.8054C39.5076 18.2518 39.7489 18.8383 39.7489 19.5649C39.7489 20.2258 39.5537 20.8058 39.1633 21.3047C38.7772 21.8037 38.2465 22.1932 37.5709 22.4733C36.8997 22.7491 36.1255 22.887 35.2481 22.887C33.9102 22.887 32.8442 22.609 32.0502 22.0532C31.2606 21.4929 30.7978 20.7313 30.6619 19.7684L33.4189 19.624C33.5022 20.031 33.704 20.3418 34.0243 20.5563C34.3445 20.7664 34.7546 20.8714 35.2547 20.8714C35.746 20.8714 36.1408 20.7773 36.4391 20.5891C36.7418 20.3965 36.8954 20.1492 36.8997 19.8472C36.8954 19.5934 36.7879 19.3855 36.5773 19.2235C36.3668 19.0572 36.0421 18.9303 35.6035 18.8427L33.8532 18.4948C32.8662 18.2978 32.1314 17.9564 31.6489 17.4706C31.1707 16.9847 30.9316 16.3654 30.9316 15.6126C30.9316 14.9648 31.1071 14.4068 31.458 13.9384C31.8134 13.4701 32.3113 13.109 32.9517 12.8552C33.5966 12.6013 34.3511 12.4744 35.2152 12.4744C36.4918 12.4744 37.4963 12.7435 38.2289 13.2819C38.9659 13.8203 39.3958 14.5534 39.5186 15.4813Z" stroke="white" stroke-width="0.2" mask="url(#path-1-outside-1_531_628)"/>
        <path d="M49.1821 15.4813L46.6159 15.6389C46.572 15.42 46.4777 15.223 46.3329 15.048C46.1882 14.8685 45.9974 14.7263 45.7605 14.6212C45.528 14.5118 45.2494 14.4571 44.9248 14.4571C44.4905 14.4571 44.1242 14.549 43.826 14.7328C43.5277 14.9123 43.3785 15.153 43.3785 15.455C43.3785 15.6957 43.475 15.8993 43.668 16.0656C43.861 16.2319 44.1922 16.3654 44.6616 16.4661L46.4909 16.8337C47.4735 17.0351 48.2061 17.359 48.6886 17.8054C49.1711 18.2518 49.4124 18.8383 49.4124 19.5649C49.4124 20.2258 49.2172 20.8058 48.8268 21.3047C48.4408 21.8037 47.91 22.1932 47.2344 22.4733C46.5632 22.7491 45.789 22.887 44.9117 22.887C43.5737 22.887 42.5077 22.609 41.7138 22.0532C40.9242 21.4929 40.4614 20.7313 40.3254 19.7684L43.0824 19.624C43.1658 20.031 43.3675 20.3418 43.6878 20.5563C44.008 20.7664 44.4182 20.8714 44.9182 20.8714C45.4095 20.8714 45.8043 20.7773 46.1026 20.5891C46.4053 20.3965 46.5589 20.1492 46.5633 19.8472C46.5589 19.5934 46.4514 19.3855 46.2408 19.2235C46.0303 19.0572 45.7057 18.9303 45.267 18.8427L43.5167 18.4948C42.5297 18.2978 41.7949 17.9564 41.3124 17.4706C40.8342 16.9847 40.5951 16.3654 40.5951 15.6126C40.5951 14.9648 40.7706 14.4068 41.1216 13.9384C41.4769 13.4701 41.9748 13.109 42.6152 12.8552C43.2601 12.6013 44.0146 12.4744 44.8788 12.4744C46.1553 12.4744 47.1598 12.7435 47.8924 13.2819C48.6294 13.8203 49.0593 14.5534 49.1821 15.4813Z" stroke="white" stroke-width="0.2" mask="url(#path-1-outside-1_531_628)"/>
        <path d="M52.889 22.69L49.0331 9.24423H52.1455L54.3761 18.5867H54.488L56.9489 9.24423H59.6138L62.0682 18.6064H62.1866L67.1967 0H70.309L63.6737 22.69H60.8969L58.3307 13.899H58.2254L55.6658 22.69H52.889Z" stroke="white" stroke-width="0.2" mask="url(#path-1-outside-1_531_628)"/>
        <path d="M71.7416 22.887C70.7195 22.887 69.8355 22.6703 69.0898 22.237C68.3485 21.7993 67.776 21.1909 67.3724 20.4118C66.9688 19.6284 66.7671 18.7202 66.7671 17.6872C66.7671 16.6455 66.9688 15.7351 67.3724 14.9561C67.776 14.1726 68.3485 13.5642 69.0898 13.1309C69.8355 12.6932 70.7195 12.4744 71.7416 12.4744C72.7637 12.4744 73.6454 12.6932 74.3867 13.1309C75.1325 13.5642 75.7071 14.1726 76.1107 14.9561C76.5143 15.7351 76.7161 16.6455 76.7161 17.6872C76.7161 18.7202 76.5143 19.6284 76.1107 20.4118C75.7071 21.1909 75.1325 21.7993 74.3867 22.237C73.6454 22.6703 72.7637 22.887 71.7416 22.887ZM71.7547 20.7204C72.2197 20.7204 72.6079 20.5891 72.9194 20.3265C73.2308 20.0595 73.4655 19.6962 73.6235 19.2366C73.7858 18.7771 73.8669 18.254 73.8669 17.6675C73.8669 17.081 73.7858 16.558 73.6235 16.0984C73.4655 15.6389 73.2308 15.2756 72.9194 15.0086C72.6079 14.7416 72.2197 14.6081 71.7547 14.6081C71.2853 14.6081 70.8905 14.7416 70.5703 15.0086C70.2545 15.2756 70.0154 15.6389 69.8531 16.0984C69.6952 16.558 69.6162 17.081 69.6162 17.6675C69.6162 18.254 69.6952 18.7771 69.8531 19.2366C70.0154 19.6962 70.2545 20.0595 70.5703 20.3265C70.8905 20.5891 71.2853 20.7204 71.7547 20.7204Z" stroke="white" stroke-width="0.2" mask="url(#path-1-outside-1_531_628)"/>
        <path d="M77.7976 22.69V12.6057H80.5151V14.3652H80.6204C80.8047 13.7393 81.1139 13.2666 81.5482 12.9471C81.9825 12.6232 82.4826 12.4612 83.0484 12.4612C83.1888 12.4612 83.3402 12.47 83.5025 12.4875C83.6648 12.505 83.8073 12.5291 83.9302 12.5597V15.0414C83.7986 15.002 83.6165 14.967 83.384 14.9364C83.1515 14.9057 82.9388 14.8904 82.7458 14.8904C82.3334 14.8904 81.9649 14.9801 81.6403 15.1596C81.3201 15.3347 81.0657 15.5798 80.877 15.8949C80.6928 16.21 80.6007 16.5733 80.6007 16.9847V22.69H77.7976Z" stroke="white" stroke-width="0.2" mask="url(#path-1-outside-1_531_628)"/>
        <path d="M87.2884 12.6057L89.1439 16.1313L91.0456 12.6057H93.921L90.9929 17.6478L94 22.69H91.1377L89.1439 19.2038L87.1831 22.69H84.2879L87.2884 17.6478L84.3931 12.6057H87.2884Z" stroke="white" stroke-width="0.2" mask="url(#path-1-outside-1_531_628)"/>
        <path d="M65.042 5.12616L66.3014 0.504175H61.3361V5.12616H65.042Z" stroke="white" stroke-width="0.2" mask="url(#path-1-outside-1_531_628)"/>
        <path d="M63.3009 4.20176V1.42857H64.0036V4.20176H63.3009ZM62.2625 3.16573V2.4646H65.042V3.16573H62.2625Z" stroke="white" stroke-width="0.2" mask="url(#path-1-outside-1_531_628)"/>
    </symbol>
    <symbol id="arrow-corner-2" width="8" height="11" viewBox="0 0 8 11" fill="none">
        <path d="M0.668976 0.743164L5.66898 5.24316L0.668976 9.74316" stroke="currentColor" stroke-width="2"/>
    </symbol>
</svg>