<svg xmlns="http://www.w3.org/2000/svg">
    <symbol id="arrow" width="37" height="37" viewBox="0 0 37 37" fill="none">
        <rect width="37" height="37" rx="18.5" fill="white"/>
        <path d="M13.8431 23.1568L23.1568 13.8431M23.1568 13.8431H17.4999M23.1568 13.8431V19.4999" stroke="currentColor"/>
    </symbol>
    <symbol id="arrow-corner" width="48" height="48" viewBox="0 0 48 48" fill="none">
        <path d="M19.5 17L28.5 24L19.5 31" stroke="currentColor" stroke-width="2"/>
    </symbol>
    <symbol id="arrow-down" viewBox="0 0 16 10" fill="none">
        <path d="M0.707153 0.707153L7.70715 7.70715L14.7072 0.707153" stroke="currentColor" stroke-width="2"/>
    </symbol>
    <symbol id="star" viewBox="0 0 18 17" fill="none">
        <path d="M8.55859 0L10.5792 6.21885H17.1181L11.828 10.0623L13.8487 16.2812L8.55859 12.4377L3.26853 16.2812L5.28915 10.0623L-0.000914574 6.21885H6.53797L8.55859 0Z" fill="#FBBC05"/>
    </symbol>
    <symbol id="star-gradient" viewBox="0 0 18 17" fill="none">
        <path d="M8.55859 0L10.5792 6.21885H17.1181L11.828 10.0623L13.8487 16.2812L8.55859 12.4377L3.26853 16.2812L5.28915 10.0623L-0.000914574 6.21885H6.53797L8.55859 0Z" fill="url(#paint0_linear_338_1317)"/>
        <defs>
        <linearGradient id="paint0_linear_338_1317" x1="-0.441406" y1="6.3" x2="17.5586" y2="6.3" gradientUnits="userSpaceOnUse">
            <stop offset="0.57605" stop-color="#FBBC05"/>
            <stop offset="0.615846" stop-color="#FFF4D5"/>
        </linearGradient>
        </defs>
    </symbol>
    <symbol id="checked" viewBox="0 0 16 13" fill="none">
        <path d="M0.707031 4.70703L4.70703 8.70703L12.707 0.707031" stroke="currentColor" stroke-width="2"/>
    </symbol>
    <symbol id="marker" viewBox="0 0 8 12" fill="none">
        <path d="M4 0C1.901 0 0 1.7015 0 3.801C0 5.9 1.7345 8.406 4 12C6.2655 8.406 8 5.9 8 3.801C8 1.7015 6.0995 0 4 0ZM4 5.5C3.1715 5.5 2.5 4.8285 2.5 4C2.5 3.1715 3.1715 2.5 4 2.5C4.8285 2.5 5.5 3.1715 5.5 4C5.5 4.8285 4.8285 5.5 4 5.5Z" fill="currentColor"/>
    </symbol>
    <symbol id="phone" viewBox="0 0 11 11" fill="none">
        <path d="M9.9383 10.4881C9.71826 10.8243 9.33609 11.0213 8.93076 10.9982C8.52543 10.975 8.00429 10.917 7.64529 10.8243C6.04713 10.4069 4.39108 9.4099 2.9898 8.00713C1.58852 6.60436 0.592562 4.94654 0.175653 3.34669C0.0830059 2.9873 0.0366826 2.4772 0.00194013 2.07144C-0.0212215 1.67727 0.164077 1.2947 0.499921 1.07443L1.92436 0.123795C2.29495 -0.119661 2.79292 0.00785908 2.9898 0.402026L4.14788 2.63951C4.31001 2.95252 4.22895 3.34669 3.95101 3.56696L2.90873 4.37848C3.32564 5.15522 3.71939 5.78125 4.48372 6.5348C5.19015 7.24198 5.80393 7.65934 6.60301 8.08828L7.42525 7.0333C7.64529 6.75507 8.03904 6.66232 8.35172 6.83622L10.5984 7.99553C10.9921 8.19262 11.1195 8.69113 10.8763 9.06211L9.9383 10.4881Z" fill="currentColor"/>
    </symbol>
    <symbol id="letter" viewBox="0 0 16 13" fill="none">
        <path d="M15.9587 1.78791C15.8866 1.4246 15.7255 1.09213 15.5005 0.81747C15.4531 0.757627 15.4035 0.704033 15.3498 0.650439C14.9512 0.249875 14.3918 0 13.7806 0H2.21941C1.60825 0 1.05081 0.249875 0.650345 0.650439C0.596751 0.704033 0.547189 0.757627 0.499626 0.81747C0.274532 1.0921 0.113438 1.4246 0.0433126 1.78791C0.0145 1.92813 0 2.07304 0 2.21954V10.3393C0 10.6508 0.0660626 10.9503 0.183875 11.2207C0.293157 11.4788 0.454282 11.7124 0.650314 11.9082C0.700001 11.9578 0.749345 12.0033 0.803189 12.0486C1.18713 12.3666 1.68272 12.5587 2.21941 12.5587H13.7806C14.3175 12.5587 14.8152 12.3666 15.197 12.0466C15.2507 12.0033 15.3002 11.9578 15.3498 11.9082C15.5457 11.7124 15.7068 11.4788 15.8184 11.2207V11.2187C15.9362 10.9483 16 10.6508 16 10.3394V2.21954C16 2.07304 15.9858 1.92813 15.9587 1.78791ZM1.45341 1.45341C1.65169 1.25535 1.91797 1.13544 2.21941 1.13544H13.7806C14.0821 1.13544 14.3507 1.25535 14.5466 1.45341C14.5817 1.48869 14.6147 1.528 14.6439 1.56707L8.58427 6.84817C8.41714 6.99464 8.2107 7.06698 8.00002 7.06698C7.79145 7.06698 7.58514 6.99464 7.4158 6.84817L1.3585 1.56482C1.38532 1.52575 1.41835 1.48869 1.45341 1.45341ZM1.13544 10.3393V2.73979L5.52057 6.56526L1.13766 10.3867C1.13544 10.3722 1.13544 10.3559 1.13544 10.3393ZM13.7806 11.423H2.21941C2.02313 11.423 1.83947 11.3714 1.68272 11.2807L6.30704 7.25076L6.73876 7.62633C7.10005 7.94027 7.55214 8.09927 8.00002 8.09927C8.4502 8.09927 8.90227 7.94027 9.26352 7.62633L9.69502 7.25076L14.3175 11.2807C14.1606 11.3714 13.9769 11.423 13.7806 11.423ZM14.8646 10.3393C14.8646 10.3559 14.8646 10.3722 14.8625 10.3867L10.4796 6.56748L14.8646 2.74182V10.3393Z" fill="currentColor"/>
    </symbol>
    <symbol id="remove" viewBox="0 0 22 22" fill="none">
        <path d="M1.06055 1.06055L20.1194 20.1194" stroke="currentColor" stroke-width="3"/>
        <path d="M20.1191 1.06055L1.06032 20.1194" stroke="currentColor" stroke-width="3"/>
    </symbol>
    <symbol id="logo" viewBox="0 0 115 29" fill="none">
        <mask id="path-1-outside-1_531_628" maskUnits="userSpaceOnUse" x="-1" y="-1" width="117" height="30" fill="black">
        <rect fill="white" x="-1" y="-1" width="117" height="30"/>
        <path d="M9.47491 16.0403C9.41051 15.3924 9.13412 14.889 8.64575 14.5303C8.15738 14.1715 7.49459 13.9921 6.65739 13.9921C6.08852 13.9921 5.6082 14.0725 5.21643 14.2331C4.82466 14.3884 4.52413 14.6052 4.31483 14.8837C4.11089 15.1621 4.00892 15.4781 4.00892 15.8315C3.99819 16.126 4.05991 16.383 4.19408 16.6025C4.33361 16.8221 4.52413 17.0122 4.76563 17.1728C5.00713 17.3281 5.2862 17.4647 5.60283 17.5825C5.91947 17.6949 6.25757 17.7913 6.61714 17.8716L8.09835 18.225C8.81749 18.3857 9.47759 18.5998 10.0787 18.8676C10.6797 19.1353 11.2003 19.4646 11.6404 19.8555C12.0804 20.2464 12.4212 20.7069 12.6627 21.237C12.9096 21.7671 13.0357 22.3749 13.0411 23.0603C13.0357 24.067 12.7781 24.9398 12.2683 25.6787C11.7638 26.4123 11.0339 26.9826 10.0787 27.3896C9.12875 27.7912 7.98296 27.992 6.64129 27.992C5.31035 27.992 4.15114 27.7885 3.16367 27.3815C2.18156 26.9746 1.41413 26.3722 0.861355 25.5743C0.313952 24.7711 0.0268335 23.7778 0 22.5944H3.37297C3.41054 23.146 3.56885 23.6065 3.84792 23.976C4.13236 24.3401 4.51071 24.6158 4.98298 24.8033C5.46062 24.9853 5.99997 25.0763 6.60104 25.0763C7.19138 25.0763 7.7039 24.9907 8.1386 24.8193C8.57867 24.648 8.91945 24.4097 9.16095 24.1045C9.40246 23.7992 9.52321 23.4485 9.52321 23.0523C9.52321 22.6828 9.41319 22.3722 9.19315 22.1206C8.97849 21.8689 8.66185 21.6547 8.24325 21.478C7.83001 21.3013 7.32286 21.1406 6.72179 20.9961L4.92663 20.5463C3.53665 20.2089 2.43916 19.6815 1.63416 18.964C0.829155 18.2464 0.429336 17.2799 0.434703 16.0644C0.429336 15.0684 0.694987 14.1983 1.23166 13.454C1.77369 12.7097 2.51698 12.1287 3.46152 11.711C4.40606 11.2934 5.4794 11.0845 6.68154 11.0845C7.90515 11.0845 8.97312 11.2934 9.88546 11.711C10.8032 12.1287 11.5169 12.7097 12.0268 13.454C12.5366 14.1983 12.7996 15.0604 12.8157 16.0403H9.47491Z"/>
        <path d="M16.8537 27.759L13.4887 15.4218H16.9583L18.8742 23.7109H18.9869L20.9833 15.4218H24.3885L26.4171 23.6627H26.5218L28.4055 15.4218H31.867L28.5101 27.759H24.8796L22.7543 20.0001H22.6014L20.4762 27.759H16.8537Z"/>
        <path d="M32.7896 27.759V15.4218H36.2189V27.759H32.7896ZM34.5123 13.8315C34.0025 13.8315 33.5651 13.6628 33.2002 13.3255C32.8406 12.9828 32.6608 12.5731 32.6608 12.0966C32.6608 11.6254 32.8406 11.2211 33.2002 10.8837C33.5651 10.541 34.0025 10.3697 34.5123 10.3697C35.0222 10.3697 35.4569 10.541 35.8164 10.8837C36.1814 11.2211 36.3638 11.6254 36.3638 12.0966C36.3638 12.5731 36.1814 12.9828 35.8164 13.3255C35.4569 13.6628 35.0222 13.8315 34.5123 13.8315Z"/>
        <path d="M48.3472 18.9399L45.2077 19.1326C45.154 18.8649 45.0386 18.6239 44.8615 18.4098C44.6844 18.1902 44.451 18.0162 44.1612 17.8877C43.8768 17.7538 43.536 17.6869 43.1388 17.6869C42.6075 17.6869 42.1594 17.7993 41.7945 18.0242C41.4295 18.2438 41.2471 18.5383 41.2471 18.9077C41.2471 19.2022 41.3651 19.4512 41.6013 19.6547C41.8374 19.8582 42.2426 20.0215 42.8168 20.1447L45.0547 20.5945C46.2569 20.8408 47.1531 21.237 47.7435 21.7832C48.3338 22.3294 48.629 23.0469 48.629 23.9358C48.629 24.7444 48.3901 25.4538 47.9125 26.0643C47.4402 26.6747 46.7909 27.1513 45.9644 27.494C45.1433 27.8313 44.1961 28 43.1227 28C41.4859 28 40.1818 27.66 39.2104 26.9799C38.2444 26.2945 37.6782 25.3628 37.5119 24.1848L40.8848 24.0081C40.9868 24.5061 41.2337 24.8862 41.6254 25.1486C42.0172 25.4057 42.519 25.5342 43.1308 25.5342C43.7319 25.5342 44.2149 25.419 44.5798 25.1888C44.9501 24.9532 45.1379 24.6506 45.1433 24.2812C45.1379 23.9706 45.0064 23.7163 44.7488 23.5181C44.4912 23.3146 44.0941 23.1594 43.5574 23.0523L41.4161 22.6266C40.2086 22.3856 39.3097 21.9679 38.7194 21.3736C38.1344 20.7792 37.8419 20.0215 37.8419 19.1005C37.8419 18.308 38.0566 17.6253 38.4859 17.0523C38.9206 16.4794 39.5297 16.0376 40.3133 15.7271C41.1022 15.4165 42.0252 15.2612 43.0825 15.2612C44.6442 15.2612 45.8732 15.5905 46.7694 16.2491C47.671 16.9078 48.1969 17.8047 48.3472 18.9399Z"/>
        <path d="M60.1696 18.9399L57.0301 19.1326C56.9764 18.8649 56.861 18.6239 56.6839 18.4098C56.5068 18.1902 56.2734 18.0162 55.9836 17.8877C55.6991 17.7538 55.3584 17.6869 54.9612 17.6869C54.4299 17.6869 53.9818 17.7993 53.6169 18.0242C53.2519 18.2438 53.0695 18.5383 53.0695 18.9077C53.0695 19.2022 53.1875 19.4512 53.4237 19.6547C53.6598 19.8582 54.065 20.0215 54.6392 20.1447L56.8771 20.5945C58.0793 20.8408 58.9755 21.237 59.5658 21.7832C60.1562 22.3294 60.4514 23.0469 60.4514 23.9358C60.4514 24.7444 60.2125 25.4538 59.7349 26.0643C59.2626 26.6747 58.6133 27.1513 57.7868 27.494C56.9657 27.8313 56.0185 28 54.9451 28C53.3083 28 52.0042 27.66 51.0328 26.9799C50.0668 26.2945 49.5006 25.3628 49.3342 24.1848L52.7072 24.0081C52.8092 24.5061 53.056 24.8862 53.4478 25.1486C53.8396 25.4057 54.3414 25.5342 54.9532 25.5342C55.5542 25.5342 56.0372 25.419 56.4022 25.1888C56.7725 24.9532 56.9603 24.6506 56.9657 24.2812C56.9603 23.9706 56.8288 23.7163 56.5712 23.5181C56.3136 23.3146 55.9165 23.1594 55.3798 23.0523L53.2385 22.6266C52.031 22.3856 51.1321 21.9679 50.5417 21.3736C49.9568 20.7792 49.6643 20.0215 49.6643 19.1005C49.6643 18.308 49.879 17.6253 50.3083 17.0523C50.743 16.4794 51.3521 16.0376 52.1357 15.7271C52.9246 15.4165 53.8476 15.2612 54.9049 15.2612C56.4666 15.2612 57.6955 15.5905 58.5918 16.2491C59.4934 16.9078 60.0193 17.8047 60.1696 18.9399Z"/>
        <path d="M64.7047 27.759L59.9873 11.3094H63.795L66.524 22.739H66.6608L69.6716 11.3094H72.9318L75.9345 22.7631H76.0794L82.2087 0H86.0164L77.8987 27.759H74.5016L71.3621 17.0041H71.2333L68.1018 27.759H64.7047Z"/>
        <path d="M87.7689 28C86.5185 28 85.4371 27.7349 84.5248 27.2048C83.6178 26.6694 82.9174 25.9251 82.4237 24.9719C81.93 24.0134 81.6831 22.9023 81.6831 21.6386C81.6831 20.3642 81.93 19.2504 82.4237 18.2973C82.9174 17.3388 83.6178 16.5945 84.5248 16.0644C85.4371 15.5289 86.5185 15.2612 87.7689 15.2612C89.0194 15.2612 90.0981 15.5289 91.0051 16.0644C91.9174 16.5945 92.6204 17.3388 93.1142 18.2973C93.6079 19.2504 93.8548 20.3642 93.8548 21.6386C93.8548 22.9023 93.6079 24.0134 93.1142 24.9719C92.6204 25.9251 91.9174 26.6694 91.0051 27.2048C90.0981 27.7349 89.0194 28 87.7689 28ZM87.785 25.3494C88.3539 25.3494 88.8289 25.1888 89.2099 24.8675C89.5909 24.5409 89.8781 24.0964 90.0713 23.5342C90.2698 22.9719 90.3691 22.3321 90.3691 21.6145C90.3691 20.897 90.2698 20.2571 90.0713 19.6949C89.8781 19.1326 89.5909 18.6882 89.2099 18.3616C88.8289 18.0349 88.3539 17.8716 87.785 17.8716C87.2108 17.8716 86.7278 18.0349 86.336 18.3616C85.9496 18.6882 85.6572 19.1326 85.4586 19.6949C85.2654 20.2571 85.1688 20.897 85.1688 21.6145C85.1688 22.3321 85.2654 22.9719 85.4586 23.5342C85.6572 24.0964 85.9496 24.5409 86.336 24.8675C86.7278 25.1888 87.2108 25.3494 87.785 25.3494Z"/>
        <path d="M95.1779 27.759V15.4218H98.5026V17.5744H98.6314C98.8568 16.8087 99.2351 16.2304 99.7664 15.8395C100.298 15.4433 100.91 15.2451 101.602 15.2451C101.774 15.2451 101.959 15.2558 102.157 15.2773C102.356 15.2987 102.53 15.3281 102.681 15.3656V18.4017C102.52 18.3535 102.297 18.3107 102.012 18.2732C101.728 18.2357 101.468 18.217 101.232 18.217C100.727 18.217 100.276 18.3268 99.8791 18.5463C99.4874 18.7605 99.1761 19.0603 98.9453 19.4459C98.7199 19.8314 98.6072 20.2759 98.6072 20.7792V27.759H95.1779Z"/>
        <path d="M106.789 15.4218L109.059 19.735L111.386 15.4218H114.903L111.321 21.5904L115 27.759H111.498L109.059 23.494L106.66 27.759H103.118L106.789 21.5904L103.247 15.4218H106.789Z"/>
        <path d="M79.5726 6.27136L81.1134 0.61681H75.0388V6.27136H79.5726Z"/>
        <path d="M77.4426 5.14045V1.74772H78.3023V5.14045H77.4426ZM76.1723 3.87297V3.0152H79.5726V3.87297H76.1723Z"/>
        </mask>
        <path d="M9.47491 16.0403C9.41051 15.3924 9.13412 14.889 8.64575 14.5303C8.15738 14.1715 7.49459 13.9921 6.65739 13.9921C6.08852 13.9921 5.6082 14.0725 5.21643 14.2331C4.82466 14.3884 4.52413 14.6052 4.31483 14.8837C4.11089 15.1621 4.00892 15.4781 4.00892 15.8315C3.99819 16.126 4.05991 16.383 4.19408 16.6025C4.33361 16.8221 4.52413 17.0122 4.76563 17.1728C5.00713 17.3281 5.2862 17.4647 5.60283 17.5825C5.91947 17.6949 6.25757 17.7913 6.61714 17.8716L8.09835 18.225C8.81749 18.3857 9.47759 18.5998 10.0787 18.8676C10.6797 19.1353 11.2003 19.4646 11.6404 19.8555C12.0804 20.2464 12.4212 20.7069 12.6627 21.237C12.9096 21.7671 13.0357 22.3749 13.0411 23.0603C13.0357 24.067 12.7781 24.9398 12.2683 25.6787C11.7638 26.4123 11.0339 26.9826 10.0787 27.3896C9.12875 27.7912 7.98296 27.992 6.64129 27.992C5.31035 27.992 4.15114 27.7885 3.16367 27.3815C2.18156 26.9746 1.41413 26.3722 0.861355 25.5743C0.313952 24.7711 0.0268335 23.7778 0 22.5944H3.37297C3.41054 23.146 3.56885 23.6065 3.84792 23.976C4.13236 24.3401 4.51071 24.6158 4.98298 24.8033C5.46062 24.9853 5.99997 25.0763 6.60104 25.0763C7.19138 25.0763 7.7039 24.9907 8.1386 24.8193C8.57867 24.648 8.91945 24.4097 9.16095 24.1045C9.40246 23.7992 9.52321 23.4485 9.52321 23.0523C9.52321 22.6828 9.41319 22.3722 9.19315 22.1206C8.97849 21.8689 8.66185 21.6547 8.24325 21.478C7.83001 21.3013 7.32286 21.1406 6.72179 20.9961L4.92663 20.5463C3.53665 20.2089 2.43916 19.6815 1.63416 18.964C0.829155 18.2464 0.429336 17.2799 0.434703 16.0644C0.429336 15.0684 0.694987 14.1983 1.23166 13.454C1.77369 12.7097 2.51698 12.1287 3.46152 11.711C4.40606 11.2934 5.4794 11.0845 6.68154 11.0845C7.90515 11.0845 8.97312 11.2934 9.88546 11.711C10.8032 12.1287 11.5169 12.7097 12.0268 13.454C12.5366 14.1983 12.7996 15.0604 12.8157 16.0403H9.47491Z" fill="#061917"/>
        <path d="M16.8537 27.759L13.4887 15.4218H16.9583L18.8742 23.7109H18.9869L20.9833 15.4218H24.3885L26.4171 23.6627H26.5218L28.4055 15.4218H31.867L28.5101 27.759H24.8796L22.7543 20.0001H22.6014L20.4762 27.759H16.8537Z" fill="#061917"/>
        <path d="M32.7896 27.759V15.4218H36.2189V27.759H32.7896ZM34.5123 13.8315C34.0025 13.8315 33.5651 13.6628 33.2002 13.3255C32.8406 12.9828 32.6608 12.5731 32.6608 12.0966C32.6608 11.6254 32.8406 11.2211 33.2002 10.8837C33.5651 10.541 34.0025 10.3697 34.5123 10.3697C35.0222 10.3697 35.4569 10.541 35.8164 10.8837C36.1814 11.2211 36.3638 11.6254 36.3638 12.0966C36.3638 12.5731 36.1814 12.9828 35.8164 13.3255C35.4569 13.6628 35.0222 13.8315 34.5123 13.8315Z" fill="#061917"/>
        <path d="M48.3472 18.9399L45.2077 19.1326C45.154 18.8649 45.0386 18.6239 44.8615 18.4098C44.6844 18.1902 44.451 18.0162 44.1612 17.8877C43.8768 17.7538 43.536 17.6869 43.1388 17.6869C42.6075 17.6869 42.1594 17.7993 41.7945 18.0242C41.4295 18.2438 41.2471 18.5383 41.2471 18.9077C41.2471 19.2022 41.3651 19.4512 41.6013 19.6547C41.8374 19.8582 42.2426 20.0215 42.8168 20.1447L45.0547 20.5945C46.2569 20.8408 47.1531 21.237 47.7435 21.7832C48.3338 22.3294 48.629 23.0469 48.629 23.9358C48.629 24.7444 48.3901 25.4538 47.9125 26.0643C47.4402 26.6747 46.7909 27.1513 45.9644 27.494C45.1433 27.8313 44.1961 28 43.1227 28C41.4859 28 40.1818 27.66 39.2104 26.9799C38.2444 26.2945 37.6782 25.3628 37.5119 24.1848L40.8848 24.0081C40.9868 24.5061 41.2337 24.8862 41.6254 25.1486C42.0172 25.4057 42.519 25.5342 43.1308 25.5342C43.7319 25.5342 44.2149 25.419 44.5798 25.1888C44.9501 24.9532 45.1379 24.6506 45.1433 24.2812C45.1379 23.9706 45.0064 23.7163 44.7488 23.5181C44.4912 23.3146 44.0941 23.1594 43.5574 23.0523L41.4161 22.6266C40.2086 22.3856 39.3097 21.9679 38.7194 21.3736C38.1344 20.7792 37.8419 20.0215 37.8419 19.1005C37.8419 18.308 38.0566 17.6253 38.4859 17.0523C38.9206 16.4794 39.5297 16.0376 40.3133 15.7271C41.1022 15.4165 42.0252 15.2612 43.0825 15.2612C44.6442 15.2612 45.8732 15.5905 46.7694 16.2491C47.671 16.9078 48.1969 17.8047 48.3472 18.9399Z" fill="#061917"/>
        <path d="M60.1696 18.9399L57.0301 19.1326C56.9764 18.8649 56.861 18.6239 56.6839 18.4098C56.5068 18.1902 56.2734 18.0162 55.9836 17.8877C55.6991 17.7538 55.3584 17.6869 54.9612 17.6869C54.4299 17.6869 53.9818 17.7993 53.6169 18.0242C53.2519 18.2438 53.0695 18.5383 53.0695 18.9077C53.0695 19.2022 53.1875 19.4512 53.4237 19.6547C53.6598 19.8582 54.065 20.0215 54.6392 20.1447L56.8771 20.5945C58.0793 20.8408 58.9755 21.237 59.5658 21.7832C60.1562 22.3294 60.4514 23.0469 60.4514 23.9358C60.4514 24.7444 60.2125 25.4538 59.7349 26.0643C59.2626 26.6747 58.6133 27.1513 57.7868 27.494C56.9657 27.8313 56.0185 28 54.9451 28C53.3083 28 52.0042 27.66 51.0328 26.9799C50.0668 26.2945 49.5006 25.3628 49.3342 24.1848L52.7072 24.0081C52.8092 24.5061 53.056 24.8862 53.4478 25.1486C53.8396 25.4057 54.3414 25.5342 54.9532 25.5342C55.5542 25.5342 56.0372 25.419 56.4022 25.1888C56.7725 24.9532 56.9603 24.6506 56.9657 24.2812C56.9603 23.9706 56.8288 23.7163 56.5712 23.5181C56.3136 23.3146 55.9165 23.1594 55.3798 23.0523L53.2385 22.6266C52.031 22.3856 51.1321 21.9679 50.5417 21.3736C49.9568 20.7792 49.6643 20.0215 49.6643 19.1005C49.6643 18.308 49.879 17.6253 50.3083 17.0523C50.743 16.4794 51.3521 16.0376 52.1357 15.7271C52.9246 15.4165 53.8476 15.2612 54.9049 15.2612C56.4666 15.2612 57.6955 15.5905 58.5918 16.2491C59.4934 16.9078 60.0193 17.8047 60.1696 18.9399Z" fill="#061917"/>
        <path d="M64.7047 27.759L59.9873 11.3094H63.795L66.524 22.739H66.6608L69.6716 11.3094H72.9318L75.9345 22.7631H76.0794L82.2087 0H86.0164L77.8987 27.759H74.5016L71.3621 17.0041H71.2333L68.1018 27.759H64.7047Z" fill="#061917"/>
        <path d="M87.7689 28C86.5185 28 85.4371 27.7349 84.5248 27.2048C83.6178 26.6694 82.9174 25.9251 82.4237 24.9719C81.93 24.0134 81.6831 22.9023 81.6831 21.6386C81.6831 20.3642 81.93 19.2504 82.4237 18.2973C82.9174 17.3388 83.6178 16.5945 84.5248 16.0644C85.4371 15.5289 86.5185 15.2612 87.7689 15.2612C89.0194 15.2612 90.0981 15.5289 91.0051 16.0644C91.9174 16.5945 92.6204 17.3388 93.1142 18.2973C93.6079 19.2504 93.8548 20.3642 93.8548 21.6386C93.8548 22.9023 93.6079 24.0134 93.1142 24.9719C92.6204 25.9251 91.9174 26.6694 91.0051 27.2048C90.0981 27.7349 89.0194 28 87.7689 28ZM87.785 25.3494C88.3539 25.3494 88.8289 25.1888 89.2099 24.8675C89.5909 24.5409 89.8781 24.0964 90.0713 23.5342C90.2698 22.9719 90.3691 22.3321 90.3691 21.6145C90.3691 20.897 90.2698 20.2571 90.0713 19.6949C89.8781 19.1326 89.5909 18.6882 89.2099 18.3616C88.8289 18.0349 88.3539 17.8716 87.785 17.8716C87.2108 17.8716 86.7278 18.0349 86.336 18.3616C85.9496 18.6882 85.6572 19.1326 85.4586 19.6949C85.2654 20.2571 85.1688 20.897 85.1688 21.6145C85.1688 22.3321 85.2654 22.9719 85.4586 23.5342C85.6572 24.0964 85.9496 24.5409 86.336 24.8675C86.7278 25.1888 87.2108 25.3494 87.785 25.3494Z" fill="#061917"/>
        <path d="M95.1779 27.759V15.4218H98.5026V17.5744H98.6314C98.8568 16.8087 99.2351 16.2304 99.7664 15.8395C100.298 15.4433 100.91 15.2451 101.602 15.2451C101.774 15.2451 101.959 15.2558 102.157 15.2773C102.356 15.2987 102.53 15.3281 102.681 15.3656V18.4017C102.52 18.3535 102.297 18.3107 102.012 18.2732C101.728 18.2357 101.468 18.217 101.232 18.217C100.727 18.217 100.276 18.3268 99.8791 18.5463C99.4874 18.7605 99.1761 19.0603 98.9453 19.4459C98.7199 19.8314 98.6072 20.2759 98.6072 20.7792V27.759H95.1779Z" fill="#061917"/>
        <path d="M106.789 15.4218L109.059 19.735L111.386 15.4218H114.903L111.321 21.5904L115 27.759H111.498L109.059 23.494L106.66 27.759H103.118L106.789 21.5904L103.247 15.4218H106.789Z" fill="#061917"/>
        <path d="M79.5726 6.27136L81.1134 0.61681H75.0388V6.27136H79.5726Z" fill="#CA1F32"/>
        <path d="M77.4426 5.14045V1.74772H78.3023V5.14045H77.4426ZM76.1723 3.87297V3.0152H79.5726V3.87297H76.1723Z" fill="white"/>
        <path d="M9.47491 16.0403C9.41051 15.3924 9.13412 14.889 8.64575 14.5303C8.15738 14.1715 7.49459 13.9921 6.65739 13.9921C6.08852 13.9921 5.6082 14.0725 5.21643 14.2331C4.82466 14.3884 4.52413 14.6052 4.31483 14.8837C4.11089 15.1621 4.00892 15.4781 4.00892 15.8315C3.99819 16.126 4.05991 16.383 4.19408 16.6025C4.33361 16.8221 4.52413 17.0122 4.76563 17.1728C5.00713 17.3281 5.2862 17.4647 5.60283 17.5825C5.91947 17.6949 6.25757 17.7913 6.61714 17.8716L8.09835 18.225C8.81749 18.3857 9.47759 18.5998 10.0787 18.8676C10.6797 19.1353 11.2003 19.4646 11.6404 19.8555C12.0804 20.2464 12.4212 20.7069 12.6627 21.237C12.9096 21.7671 13.0357 22.3749 13.0411 23.0603C13.0357 24.067 12.7781 24.9398 12.2683 25.6787C11.7638 26.4123 11.0339 26.9826 10.0787 27.3896C9.12875 27.7912 7.98296 27.992 6.64129 27.992C5.31035 27.992 4.15114 27.7885 3.16367 27.3815C2.18156 26.9746 1.41413 26.3722 0.861355 25.5743C0.313952 24.7711 0.0268335 23.7778 0 22.5944H3.37297C3.41054 23.146 3.56885 23.6065 3.84792 23.976C4.13236 24.3401 4.51071 24.6158 4.98298 24.8033C5.46062 24.9853 5.99997 25.0763 6.60104 25.0763C7.19138 25.0763 7.7039 24.9907 8.1386 24.8193C8.57867 24.648 8.91945 24.4097 9.16095 24.1045C9.40246 23.7992 9.52321 23.4485 9.52321 23.0523C9.52321 22.6828 9.41319 22.3722 9.19315 22.1206C8.97849 21.8689 8.66185 21.6547 8.24325 21.478C7.83001 21.3013 7.32286 21.1406 6.72179 20.9961L4.92663 20.5463C3.53665 20.2089 2.43916 19.6815 1.63416 18.964C0.829155 18.2464 0.429336 17.2799 0.434703 16.0644C0.429336 15.0684 0.694987 14.1983 1.23166 13.454C1.77369 12.7097 2.51698 12.1287 3.46152 11.711C4.40606 11.2934 5.4794 11.0845 6.68154 11.0845C7.90515 11.0845 8.97312 11.2934 9.88546 11.711C10.8032 12.1287 11.5169 12.7097 12.0268 13.454C12.5366 14.1983 12.7996 15.0604 12.8157 16.0403H9.47491Z" stroke="white" stroke-width="0.2" mask="url(#path-1-outside-1_531_628)"/>
        <path d="M16.8537 27.759L13.4887 15.4218H16.9583L18.8742 23.7109H18.9869L20.9833 15.4218H24.3885L26.4171 23.6627H26.5218L28.4055 15.4218H31.867L28.5101 27.759H24.8796L22.7543 20.0001H22.6014L20.4762 27.759H16.8537Z" stroke="white" stroke-width="0.2" mask="url(#path-1-outside-1_531_628)"/>
        <path d="M32.7896 27.759V15.4218H36.2189V27.759H32.7896ZM34.5123 13.8315C34.0025 13.8315 33.5651 13.6628 33.2002 13.3255C32.8406 12.9828 32.6608 12.5731 32.6608 12.0966C32.6608 11.6254 32.8406 11.2211 33.2002 10.8837C33.5651 10.541 34.0025 10.3697 34.5123 10.3697C35.0222 10.3697 35.4569 10.541 35.8164 10.8837C36.1814 11.2211 36.3638 11.6254 36.3638 12.0966C36.3638 12.5731 36.1814 12.9828 35.8164 13.3255C35.4569 13.6628 35.0222 13.8315 34.5123 13.8315Z" stroke="white" stroke-width="0.2" mask="url(#path-1-outside-1_531_628)"/>
        <path d="M48.3472 18.9399L45.2077 19.1326C45.154 18.8649 45.0386 18.6239 44.8615 18.4098C44.6844 18.1902 44.451 18.0162 44.1612 17.8877C43.8768 17.7538 43.536 17.6869 43.1388 17.6869C42.6075 17.6869 42.1594 17.7993 41.7945 18.0242C41.4295 18.2438 41.2471 18.5383 41.2471 18.9077C41.2471 19.2022 41.3651 19.4512 41.6013 19.6547C41.8374 19.8582 42.2426 20.0215 42.8168 20.1447L45.0547 20.5945C46.2569 20.8408 47.1531 21.237 47.7435 21.7832C48.3338 22.3294 48.629 23.0469 48.629 23.9358C48.629 24.7444 48.3901 25.4538 47.9125 26.0643C47.4402 26.6747 46.7909 27.1513 45.9644 27.494C45.1433 27.8313 44.1961 28 43.1227 28C41.4859 28 40.1818 27.66 39.2104 26.9799C38.2444 26.2945 37.6782 25.3628 37.5119 24.1848L40.8848 24.0081C40.9868 24.5061 41.2337 24.8862 41.6254 25.1486C42.0172 25.4057 42.519 25.5342 43.1308 25.5342C43.7319 25.5342 44.2149 25.419 44.5798 25.1888C44.9501 24.9532 45.1379 24.6506 45.1433 24.2812C45.1379 23.9706 45.0064 23.7163 44.7488 23.5181C44.4912 23.3146 44.0941 23.1594 43.5574 23.0523L41.4161 22.6266C40.2086 22.3856 39.3097 21.9679 38.7194 21.3736C38.1344 20.7792 37.8419 20.0215 37.8419 19.1005C37.8419 18.308 38.0566 17.6253 38.4859 17.0523C38.9206 16.4794 39.5297 16.0376 40.3133 15.7271C41.1022 15.4165 42.0252 15.2612 43.0825 15.2612C44.6442 15.2612 45.8732 15.5905 46.7694 16.2491C47.671 16.9078 48.1969 17.8047 48.3472 18.9399Z" stroke="white" stroke-width="0.2" mask="url(#path-1-outside-1_531_628)"/>
        <path d="M60.1696 18.9399L57.0301 19.1326C56.9764 18.8649 56.861 18.6239 56.6839 18.4098C56.5068 18.1902 56.2734 18.0162 55.9836 17.8877C55.6991 17.7538 55.3584 17.6869 54.9612 17.6869C54.4299 17.6869 53.9818 17.7993 53.6169 18.0242C53.2519 18.2438 53.0695 18.5383 53.0695 18.9077C53.0695 19.2022 53.1875 19.4512 53.4237 19.6547C53.6598 19.8582 54.065 20.0215 54.6392 20.1447L56.8771 20.5945C58.0793 20.8408 58.9755 21.237 59.5658 21.7832C60.1562 22.3294 60.4514 23.0469 60.4514 23.9358C60.4514 24.7444 60.2125 25.4538 59.7349 26.0643C59.2626 26.6747 58.6133 27.1513 57.7868 27.494C56.9657 27.8313 56.0185 28 54.9451 28C53.3083 28 52.0042 27.66 51.0328 26.9799C50.0668 26.2945 49.5006 25.3628 49.3342 24.1848L52.7072 24.0081C52.8092 24.5061 53.056 24.8862 53.4478 25.1486C53.8396 25.4057 54.3414 25.5342 54.9532 25.5342C55.5542 25.5342 56.0372 25.419 56.4022 25.1888C56.7725 24.9532 56.9603 24.6506 56.9657 24.2812C56.9603 23.9706 56.8288 23.7163 56.5712 23.5181C56.3136 23.3146 55.9165 23.1594 55.3798 23.0523L53.2385 22.6266C52.031 22.3856 51.1321 21.9679 50.5417 21.3736C49.9568 20.7792 49.6643 20.0215 49.6643 19.1005C49.6643 18.308 49.879 17.6253 50.3083 17.0523C50.743 16.4794 51.3521 16.0376 52.1357 15.7271C52.9246 15.4165 53.8476 15.2612 54.9049 15.2612C56.4666 15.2612 57.6955 15.5905 58.5918 16.2491C59.4934 16.9078 60.0193 17.8047 60.1696 18.9399Z" stroke="white" stroke-width="0.2" mask="url(#path-1-outside-1_531_628)"/>
        <path d="M64.7047 27.759L59.9873 11.3094H63.795L66.524 22.739H66.6608L69.6716 11.3094H72.9318L75.9345 22.7631H76.0794L82.2087 0H86.0164L77.8987 27.759H74.5016L71.3621 17.0041H71.2333L68.1018 27.759H64.7047Z" stroke="white" stroke-width="0.2" mask="url(#path-1-outside-1_531_628)"/>
        <path d="M87.7689 28C86.5185 28 85.4371 27.7349 84.5248 27.2048C83.6178 26.6694 82.9174 25.9251 82.4237 24.9719C81.93 24.0134 81.6831 22.9023 81.6831 21.6386C81.6831 20.3642 81.93 19.2504 82.4237 18.2973C82.9174 17.3388 83.6178 16.5945 84.5248 16.0644C85.4371 15.5289 86.5185 15.2612 87.7689 15.2612C89.0194 15.2612 90.0981 15.5289 91.0051 16.0644C91.9174 16.5945 92.6204 17.3388 93.1142 18.2973C93.6079 19.2504 93.8548 20.3642 93.8548 21.6386C93.8548 22.9023 93.6079 24.0134 93.1142 24.9719C92.6204 25.9251 91.9174 26.6694 91.0051 27.2048C90.0981 27.7349 89.0194 28 87.7689 28ZM87.785 25.3494C88.3539 25.3494 88.8289 25.1888 89.2099 24.8675C89.5909 24.5409 89.8781 24.0964 90.0713 23.5342C90.2698 22.9719 90.3691 22.3321 90.3691 21.6145C90.3691 20.897 90.2698 20.2571 90.0713 19.6949C89.8781 19.1326 89.5909 18.6882 89.2099 18.3616C88.8289 18.0349 88.3539 17.8716 87.785 17.8716C87.2108 17.8716 86.7278 18.0349 86.336 18.3616C85.9496 18.6882 85.6572 19.1326 85.4586 19.6949C85.2654 20.2571 85.1688 20.897 85.1688 21.6145C85.1688 22.3321 85.2654 22.9719 85.4586 23.5342C85.6572 24.0964 85.9496 24.5409 86.336 24.8675C86.7278 25.1888 87.2108 25.3494 87.785 25.3494Z" stroke="white" stroke-width="0.2" mask="url(#path-1-outside-1_531_628)"/>
        <path d="M95.1779 27.759V15.4218H98.5026V17.5744H98.6314C98.8568 16.8087 99.2351 16.2304 99.7664 15.8395C100.298 15.4433 100.91 15.2451 101.602 15.2451C101.774 15.2451 101.959 15.2558 102.157 15.2773C102.356 15.2987 102.53 15.3281 102.681 15.3656V18.4017C102.52 18.3535 102.297 18.3107 102.012 18.2732C101.728 18.2357 101.468 18.217 101.232 18.217C100.727 18.217 100.276 18.3268 99.8791 18.5463C99.4874 18.7605 99.1761 19.0603 98.9453 19.4459C98.7199 19.8314 98.6072 20.2759 98.6072 20.7792V27.759H95.1779Z" stroke="white" stroke-width="0.2" mask="url(#path-1-outside-1_531_628)"/>
        <path d="M106.789 15.4218L109.059 19.735L111.386 15.4218H114.903L111.321 21.5904L115 27.759H111.498L109.059 23.494L106.66 27.759H103.118L106.789 21.5904L103.247 15.4218H106.789Z" stroke="white" stroke-width="0.2" mask="url(#path-1-outside-1_531_628)"/>
        <path d="M79.5726 6.27136L81.1134 0.61681H75.0388V6.27136H79.5726Z" stroke="white" stroke-width="0.2" mask="url(#path-1-outside-1_531_628)"/>
        <path d="M77.4426 5.14045V1.74772H78.3023V5.14045H77.4426ZM76.1723 3.87297V3.0152H79.5726V3.87297H76.1723Z" stroke="white" stroke-width="0.2" mask="url(#path-1-outside-1_531_628)"/>
    </symbol>
    <symbol id="arrow-corner-2" width="8" height="11" viewBox="0 0 8 11" fill="none">
        <path d="M0.668976 0.743164L5.66898 5.24316L0.668976 9.74316" stroke="currentColor" stroke-width="2"/>
    </symbol>
    <symbol id="avart" viewBox="0 0 164 50" fill="none">
        <rect width="164" height="50" rx="6" fill="white"/>
        <path d="M30.2947 26.1497L32.2736 20.6003H33.3065L30.3165 28.5203L28.0331 22.6584L25.7498 28.5203L22.7598 20.6003H23.7927L25.8151 26.1497L28.0331 20.2232L30.2947 26.1497Z" fill="#061917"/>
        <path d="M35.298 28.2509C34.834 28.2509 34.4209 28.1432 34.0584 27.9277C33.7033 27.705 33.4242 27.3997 33.2212 27.0118C33.0255 26.6238 32.9277 26.1749 32.9277 25.6648C32.9277 25.1476 33.0291 24.695 33.2321 24.3071C33.4423 23.9192 33.7322 23.6175 34.1019 23.402C34.4789 23.1864 34.9138 23.0787 35.4067 23.0787C35.8996 23.0787 36.32 23.1829 36.6679 23.3912C37.0231 23.5923 37.2949 23.8833 37.4834 24.264C37.6719 24.6447 37.7661 25.0973 37.7661 25.6217C37.7661 25.672 37.7625 25.7259 37.7552 25.7833C37.7552 25.8336 37.7552 25.866 37.7552 25.8803H33.4822V25.1476H37.0702L36.7223 25.6433C36.7441 25.6073 36.7658 25.5535 36.7875 25.4816C36.8093 25.4026 36.8202 25.338 36.8202 25.2877C36.8202 24.9931 36.7585 24.7381 36.6353 24.5226C36.5193 24.3071 36.3562 24.1383 36.146 24.0162C35.9358 23.894 35.6894 23.833 35.4067 23.833C35.0732 23.833 34.7869 23.9048 34.5477 24.0485C34.3158 24.185 34.1345 24.3861 34.0041 24.6519C33.8808 24.9105 33.8156 25.2302 33.8084 25.6109C33.8084 25.9989 33.87 26.3293 33.9932 26.6023C34.1164 26.8753 34.2976 27.0836 34.5368 27.2273C34.776 27.3709 35.066 27.4428 35.4067 27.4428C35.7474 27.4428 36.0482 27.3709 36.3091 27.2273C36.5701 27.0764 36.7912 26.8501 36.9724 26.5484L37.6791 26.9902C37.4182 27.4069 37.0884 27.7229 36.6897 27.9384C36.2983 28.1468 35.8343 28.2509 35.298 28.2509Z" fill="#061917"/>
        <path d="M39.7738 19.7383V28.1432H38.9039V19.7383H39.7738ZM43.9599 25.6648C43.9599 26.1964 43.8475 26.6562 43.6228 27.0441C43.3981 27.432 43.0973 27.7301 42.7203 27.9384C42.3507 28.1468 41.9375 28.2509 41.4808 28.2509C41.0677 28.2509 40.7016 28.1468 40.3827 27.9384C40.071 27.7301 39.8245 27.432 39.6433 27.0441C39.4693 26.6562 39.3823 26.1964 39.3823 25.6648C39.3823 25.126 39.4693 24.6663 39.6433 24.2855C39.8245 23.8976 40.071 23.5995 40.3827 23.3912C40.7016 23.1829 41.0677 23.0787 41.4808 23.0787C41.9375 23.0787 42.3507 23.1829 42.7203 23.3912C43.0973 23.5995 43.3981 23.8976 43.6228 24.2855C43.8475 24.6663 43.9599 25.126 43.9599 25.6648ZM43.0791 25.6648C43.0791 25.2841 42.9994 24.9608 42.8399 24.695C42.6877 24.4292 42.4811 24.2281 42.2202 24.0916C41.9665 23.9551 41.6838 23.8869 41.3721 23.8869C41.1184 23.8869 40.8683 23.9551 40.6219 24.0916C40.3754 24.2281 40.1724 24.4292 40.013 24.695C39.8535 24.9608 39.7738 25.2841 39.7738 25.6648C39.7738 26.0455 39.8535 26.3688 40.013 26.6346C40.1724 26.9004 40.3754 27.1015 40.6219 27.238C40.8683 27.3745 41.1184 27.4428 41.3721 27.4428C41.6838 27.4428 41.9665 27.3745 42.2202 27.238C42.4811 27.1015 42.6877 26.9004 42.8399 26.6346C42.9994 26.3688 43.0791 26.0455 43.0791 25.6648Z" fill="#061917"/>
        <path d="M45.3659 26.6238C45.4673 26.7747 45.5833 26.9148 45.7138 27.0441C45.8443 27.1734 45.9929 27.2775 46.1596 27.3566C46.3335 27.4284 46.522 27.4643 46.725 27.4643C46.9714 27.4643 47.1635 27.4104 47.3012 27.3027C47.4462 27.1878 47.5187 27.0333 47.5187 26.8393C47.5187 26.6669 47.4607 26.5233 47.3447 26.4083C47.236 26.2862 47.0947 26.1856 46.9207 26.1066C46.7467 26.0204 46.5619 25.9414 46.3662 25.8695C46.1487 25.7833 45.9276 25.6828 45.7029 25.5678C45.4855 25.4457 45.3006 25.2913 45.1484 25.1045C45.0034 24.9105 44.9309 24.6699 44.9309 24.3825C44.9309 24.088 45.0071 23.8438 45.1593 23.6498C45.3187 23.4558 45.5217 23.3122 45.7682 23.2188C46.0219 23.1254 46.2828 23.0787 46.551 23.0787C46.8192 23.0787 47.0693 23.1218 47.3012 23.208C47.5404 23.2942 47.7507 23.4091 47.9319 23.5528C48.1131 23.6965 48.2544 23.8617 48.3559 24.0485L47.66 24.4903C47.5223 24.3035 47.3484 24.1491 47.1381 24.0269C46.9352 23.9048 46.7032 23.8438 46.4423 23.8438C46.2611 23.8438 46.1052 23.8833 45.9747 23.9623C45.8443 24.0413 45.779 24.1634 45.779 24.3286C45.779 24.458 45.8298 24.5729 45.9312 24.6735C46.0327 24.774 46.1632 24.8638 46.3227 24.9429C46.4821 25.0219 46.6489 25.0973 46.8228 25.1691C47.1128 25.2841 47.3773 25.4098 47.6166 25.5463C47.8558 25.6756 48.0442 25.8336 48.1819 26.0204C48.3269 26.2072 48.3994 26.4478 48.3994 26.7424C48.3994 27.1734 48.2399 27.5326 47.921 27.8199C47.6093 28.1073 47.1961 28.2509 46.6815 28.2509C46.348 28.2509 46.0472 28.1935 45.779 28.0785C45.5108 27.9564 45.2825 27.802 45.094 27.6152C44.9128 27.4284 44.7751 27.238 44.6809 27.0441L45.3659 26.6238Z" fill="#061917"/>
        <path d="M49.5445 21.1391C49.5445 20.9739 49.6025 20.8338 49.7185 20.7189C49.8417 20.6039 49.9831 20.5464 50.1426 20.5464C50.3093 20.5464 50.4506 20.6039 50.5666 20.7189C50.6826 20.8338 50.7406 20.9739 50.7406 21.1391C50.7406 21.2971 50.6826 21.4372 50.5666 21.5593C50.4506 21.6743 50.3093 21.7318 50.1426 21.7318C49.9831 21.7318 49.8417 21.6743 49.7185 21.5593C49.6025 21.4372 49.5445 21.2971 49.5445 21.1391ZM49.7076 23.1864H50.5775V28.1432H49.7076V23.1864Z" fill="#061917"/>
        <path d="M51.6079 23.1864H54.1086V23.9946H51.6079V23.1864ZM52.4233 21.4624H53.2932V28.1432H52.4233V21.4624Z" fill="#061917"/>
        <path d="M56.9164 28.2509C56.4525 28.2509 56.0393 28.1432 55.6769 27.9277C55.3217 27.705 55.0426 27.3997 54.8397 27.0118C54.6439 26.6238 54.5461 26.1749 54.5461 25.6648C54.5461 25.1476 54.6476 24.695 54.8505 24.3071C55.0607 23.9192 55.3507 23.6175 55.7204 23.402C56.0973 23.1864 56.5322 23.0787 57.0251 23.0787C57.518 23.0787 57.9384 23.1829 58.2864 23.3912C58.6416 23.5923 58.9134 23.8833 59.1018 24.264C59.2903 24.6447 59.3845 25.0973 59.3845 25.6217C59.3845 25.672 59.3809 25.7259 59.3737 25.7833C59.3737 25.8336 59.3737 25.866 59.3737 25.8803H55.1006V25.1476H58.6887L58.3407 25.6433C58.3625 25.6073 58.3842 25.5535 58.406 25.4816C58.4277 25.4026 58.4386 25.338 58.4386 25.2877C58.4386 24.9931 58.377 24.7381 58.2538 24.5226C58.1378 24.3071 57.9747 24.1383 57.7645 24.0162C57.5543 23.894 57.3078 23.833 57.0251 23.833C56.6917 23.833 56.4054 23.9048 56.1662 24.0485C55.9342 24.185 55.753 24.3861 55.6225 24.6519C55.4993 24.9105 55.434 25.2302 55.4268 25.6109C55.4268 25.9989 55.4884 26.3293 55.6116 26.6023C55.7349 26.8753 55.9161 27.0836 56.1553 27.2273C56.3945 27.3709 56.6844 27.4428 57.0251 27.4428C57.3658 27.4428 57.6666 27.3709 57.9276 27.2273C58.1885 27.0764 58.4096 26.8501 58.5908 26.5484L59.2976 26.9902C59.0366 27.4069 58.7068 27.7229 58.3081 27.9384C57.9167 28.1468 57.4528 28.2509 56.9164 28.2509Z" fill="#061917"/>
        <path d="M63.8909 20.6003H64.8151V28.1432H63.8909V20.6003ZM66.1742 28.1432H64.4019V27.2273H66.1742C66.6018 27.2273 66.9933 27.1626 67.3485 27.0333C67.7036 26.8968 68.0081 26.7064 68.2618 26.4622C68.5155 26.2108 68.7112 25.9091 68.8489 25.5571C68.9866 25.2051 69.0555 24.81 69.0555 24.3718C69.0555 23.9335 68.9866 23.5384 68.8489 23.1864C68.7112 22.8344 68.5155 22.5363 68.2618 22.2921C68.0081 22.0406 67.7036 21.8503 67.3485 21.721C66.9933 21.5845 66.6018 21.5162 66.1742 21.5162H64.4019V20.6003H66.1742C66.9135 20.6003 67.5695 20.7584 68.1422 21.0744C68.7148 21.3905 69.1642 21.8323 69.4904 22.3998C69.8166 22.9602 69.9797 23.6175 69.9797 24.3718C69.9797 25.126 69.8166 25.7869 69.4904 26.3544C69.1642 26.9148 68.7148 27.353 68.1422 27.6691C67.5695 27.9851 66.9135 28.1432 66.1742 28.1432Z" fill="#061917"/>
        <path d="M73.1621 28.2509C72.6982 28.2509 72.285 28.1432 71.9226 27.9277C71.5674 27.705 71.2883 27.3997 71.0853 27.0118C70.8896 26.6238 70.7918 26.1749 70.7918 25.6648C70.7918 25.1476 70.8933 24.695 71.0962 24.3071C71.3064 23.9192 71.5964 23.6175 71.966 23.402C72.343 23.1864 72.7779 23.0787 73.2708 23.0787C73.7637 23.0787 74.1841 23.1829 74.5321 23.3912C74.8872 23.5923 75.1591 23.8833 75.3475 24.264C75.536 24.6447 75.6302 25.0973 75.6302 25.6217C75.6302 25.672 75.6266 25.7259 75.6194 25.7833C75.6194 25.8336 75.6194 25.866 75.6194 25.8803H71.3463V25.1476H74.9344L74.5864 25.6433C74.6082 25.6073 74.6299 25.5535 74.6517 25.4816C74.6734 25.4026 74.6843 25.338 74.6843 25.2877C74.6843 24.9931 74.6227 24.7381 74.4994 24.5226C74.3835 24.3071 74.2204 24.1383 74.0102 24.0162C73.8 23.894 73.5535 23.833 73.2708 23.833C72.9374 23.833 72.651 23.9048 72.4118 24.0485C72.1799 24.185 71.9987 24.3861 71.8682 24.6519C71.745 24.9105 71.6797 25.2302 71.6725 25.6109C71.6725 25.9989 71.7341 26.3293 71.8573 26.6023C71.9805 26.8753 72.1618 27.0836 72.401 27.2273C72.6402 27.3709 72.9301 27.4428 73.2708 27.4428C73.6115 27.4428 73.9123 27.3709 74.1733 27.2273C74.4342 27.0764 74.6553 26.8501 74.8365 26.5484L75.5432 26.9902C75.2823 27.4069 74.9525 27.7229 74.5538 27.9384C74.1624 28.1468 73.6985 28.2509 73.1621 28.2509Z" fill="#061917"/>
        <path d="M77.029 26.6238C77.1305 26.7747 77.2465 26.9148 77.3769 27.0441C77.5074 27.1734 77.656 27.2775 77.8227 27.3566C77.9967 27.4284 78.1852 27.4643 78.3881 27.4643C78.6346 27.4643 78.8267 27.4104 78.9644 27.3027C79.1094 27.1878 79.1819 27.0333 79.1819 26.8393C79.1819 26.6669 79.1239 26.5233 79.0079 26.4083C78.8992 26.2862 78.7578 26.1856 78.5838 26.1066C78.4099 26.0204 78.225 25.9414 78.0293 25.8695C77.8119 25.7833 77.5908 25.6828 77.3661 25.5678C77.1486 25.4457 76.9638 25.2913 76.8116 25.1045C76.6666 24.9105 76.5941 24.6699 76.5941 24.3825C76.5941 24.088 76.6702 23.8438 76.8224 23.6498C76.9819 23.4558 77.1849 23.3122 77.4313 23.2188C77.685 23.1254 77.946 23.0787 78.2142 23.0787C78.4824 23.0787 78.7324 23.1218 78.9644 23.208C79.2036 23.2942 79.4138 23.4091 79.595 23.5528C79.7762 23.6965 79.9176 23.8617 80.0191 24.0485L79.3232 24.4903C79.1855 24.3035 79.0115 24.1491 78.8013 24.0269C78.5983 23.9048 78.3664 23.8438 78.1054 23.8438C77.9242 23.8438 77.7684 23.8833 77.6379 23.9623C77.5074 24.0413 77.4422 24.1634 77.4422 24.3286C77.4422 24.458 77.4929 24.5729 77.5944 24.6735C77.6959 24.774 77.8264 24.8638 77.9858 24.9429C78.1453 25.0219 78.312 25.0973 78.486 25.1691C78.7759 25.2841 79.0405 25.4098 79.2797 25.5463C79.5189 25.6756 79.7074 25.8336 79.8451 26.0204C79.9901 26.2072 80.0626 26.4478 80.0626 26.7424C80.0626 27.1734 79.9031 27.5326 79.5841 27.8199C79.2725 28.1073 78.8593 28.2509 78.3446 28.2509C78.0112 28.2509 77.7104 28.1935 77.4422 28.0785C77.174 27.9564 76.9457 27.802 76.7572 27.6152C76.576 27.4284 76.4382 27.238 76.344 27.0441L77.029 26.6238Z" fill="#061917"/>
        <path d="M81.2077 21.1391C81.2077 20.9739 81.2657 20.8338 81.3817 20.7189C81.5049 20.6039 81.6462 20.5464 81.8057 20.5464C81.9724 20.5464 82.1138 20.6039 82.2298 20.7189C82.3457 20.8338 82.4037 20.9739 82.4037 21.1391C82.4037 21.2971 82.3457 21.4372 82.2298 21.5593C82.1138 21.6743 81.9724 21.7318 81.8057 21.7318C81.6462 21.7318 81.5049 21.6743 81.3817 21.5593C81.2657 21.4372 81.2077 21.2971 81.2077 21.1391ZM81.3708 23.1864H82.2406V28.1432H81.3708V23.1864Z" fill="#061917"/>
        <path d="M83.695 28.4664H84.5758C84.5758 28.7035 84.641 28.9226 84.7715 29.1238C84.9019 29.3321 85.0868 29.4973 85.326 29.6194C85.5652 29.7487 85.8479 29.8134 86.1741 29.8134C86.4278 29.8134 86.6779 29.7523 86.9243 29.6302C87.1708 29.5081 87.3737 29.3141 87.5332 29.0483C87.6999 28.7897 87.7833 28.4521 87.7833 28.0354V23.1864H88.6531V28.0354C88.6531 28.6029 88.5335 29.0771 88.2943 29.4578C88.0551 29.8457 87.747 30.1367 87.3701 30.3306C86.9932 30.5246 86.5945 30.6215 86.1741 30.6215C85.6884 30.6215 85.2571 30.5318 84.8802 30.3522C84.5105 30.1726 84.2206 29.9175 84.0104 29.5871C83.8002 29.2638 83.695 28.8903 83.695 28.4664ZM83.5972 25.6648C83.5972 25.126 83.7095 24.6663 83.9343 24.2855C84.159 23.8976 84.4598 23.5995 84.8367 23.3912C85.2136 23.1829 85.6268 23.0787 86.0762 23.0787C86.4966 23.0787 86.8627 23.1829 87.1744 23.3912C87.4861 23.5995 87.7289 23.8976 87.9029 24.2855C88.0841 24.6663 88.1747 25.126 88.1747 25.6648C88.1747 26.1964 88.0841 26.6562 87.9029 27.0441C87.7289 27.432 87.4861 27.7301 87.1744 27.9384C86.8627 28.1468 86.4966 28.2509 86.0762 28.2509C85.6268 28.2509 85.2136 28.1468 84.8367 27.9384C84.4598 27.7301 84.159 27.432 83.9343 27.0441C83.7095 26.6562 83.5972 26.1964 83.5972 25.6648ZM84.4779 25.6648C84.4779 26.0455 84.554 26.3688 84.7062 26.6346C84.8657 26.9004 85.0759 27.1015 85.3369 27.238C85.5978 27.3745 85.8805 27.4428 86.185 27.4428C86.4387 27.4428 86.6887 27.3745 86.9352 27.238C87.1816 27.1015 87.3846 26.9004 87.5441 26.6346C87.7035 26.3688 87.7833 26.0455 87.7833 25.6648C87.7833 25.3775 87.7362 25.126 87.6419 24.9105C87.5477 24.6878 87.4208 24.5011 87.2614 24.3502C87.1092 24.1993 86.9388 24.0844 86.7503 24.0054C86.5619 23.9264 86.3734 23.8869 86.185 23.8869C85.8805 23.8869 85.5978 23.9551 85.3369 24.0916C85.0759 24.2281 84.8657 24.4292 84.7062 24.695C84.554 24.9608 84.4779 25.2841 84.4779 25.6648Z" fill="#061917"/>
        <path d="M93.4406 25.126C93.4406 24.7166 93.35 24.4077 93.1688 24.1993C92.9875 23.991 92.723 23.8869 92.375 23.8869C92.1213 23.8869 91.8966 23.9407 91.7009 24.0485C91.5125 24.1491 91.3639 24.2927 91.2551 24.4795C91.1536 24.6663 91.1029 24.8818 91.1029 25.126V28.1432H90.2331V23.1864H91.1029V23.9623C91.2696 23.6606 91.4762 23.4379 91.7227 23.2942C91.9764 23.1505 92.2663 23.0787 92.5925 23.0787C93.1217 23.0787 93.5385 23.2547 93.8429 23.6067C94.1546 23.9515 94.3104 24.422 94.3104 25.0183V28.1432H93.4406V25.126Z" fill="#061917"/>
        <path d="M108.812 34.4284L118.537 16.5638L123.886 25.9924L128.262 34.4284M113.675 25.9924H127.29M121.455 15.5713L131.18 33.4359L140.904 15.5713" stroke="#061917"/>
        <path d="M133.979 33.578L134.082 33.1054H135.613L135.721 33.578H133.979ZM134.841 32.0564L134.323 33.2709L134.313 33.3937L133.857 34.4286H133.23L134.841 30.9365L136.451 34.4286H135.824L135.377 33.4221L135.363 33.2851L134.841 32.0564Z" fill="#061917"/>
        <path d="M137.513 32.8496H138.116L139.232 34.4279H138.563L137.513 32.8496ZM136.836 31.1201H137.391V34.4279H136.836V31.1201ZM137.165 31.6021V31.1201H137.852C138.091 31.1201 138.298 31.1626 138.474 31.2476C138.653 31.3327 138.791 31.4524 138.888 31.6068C138.985 31.758 139.034 31.9376 139.034 32.1455C139.034 32.3534 138.985 32.5345 138.888 32.6889C138.791 32.8433 138.653 32.963 138.474 33.0481C138.298 33.1331 138.091 33.1756 137.852 33.1756H137.165V32.7172H137.829C137.954 32.7172 138.064 32.6952 138.159 32.6511C138.256 32.607 138.331 32.544 138.385 32.4621C138.438 32.377 138.465 32.2763 138.465 32.1597C138.465 32.04 138.438 31.9391 138.385 31.8573C138.331 31.7754 138.256 31.7124 138.159 31.6682C138.064 31.6242 137.954 31.6021 137.829 31.6021H137.165Z" fill="#061917"/>
        <path d="M139.305 31.6352V31.1201H141.602V31.6352H140.731V34.4279H140.17V31.6352H139.305Z" fill="#061917"/>
    </symbol>
</svg>