<svg width="512" height="512" viewBox="0 0 512 512" fill="none" xmlns="http://www.w3.org/2000/svg">
<rect width="512" height="512" fill="#0A2849"/>
<path d="M170.665 234.186C170.158 229.1 167.98 225.149 164.131 222.333C160.283 219.516 155.06 218.108 148.462 218.108C143.979 218.108 140.194 218.739 137.107 220C134.02 221.219 131.651 222.921 130.002 225.107C128.395 227.292 127.592 229.772 127.592 232.546C127.507 234.858 127.993 236.876 129.051 238.599C130.15 240.322 131.651 241.814 133.555 243.075C135.458 244.294 137.657 245.366 140.152 246.291C142.647 247.173 145.312 247.93 148.145 248.56L159.817 251.334C165.484 252.595 170.686 254.277 175.423 256.378C180.159 258.48 184.262 261.065 187.73 264.133C191.197 267.201 193.883 270.816 195.786 274.977C197.731 279.138 198.725 283.909 198.768 289.289C198.725 297.191 196.695 304.042 192.678 309.842C188.702 315.601 182.951 320.077 175.423 323.271C167.937 326.424 158.908 328 148.335 328C137.847 328 128.712 326.403 120.931 323.208C113.191 320.014 107.144 315.285 102.788 309.023C98.474 302.718 96.2115 294.921 96 285.632H122.58C122.876 289.961 124.124 293.576 126.323 296.476C128.564 299.334 131.546 301.499 135.267 302.97C139.031 304.399 143.282 305.114 148.018 305.114C152.67 305.114 156.709 304.441 160.135 303.096C163.602 301.751 166.288 299.881 168.191 297.485C170.094 295.089 171.046 292.336 171.046 289.226C171.046 286.326 170.179 283.888 168.445 281.912C166.753 279.937 164.258 278.256 160.959 276.869C157.703 275.482 153.706 274.221 148.97 273.086L134.823 269.555C123.87 266.907 115.221 262.767 108.878 257.135C102.534 251.502 99.3833 243.916 99.4256 234.375C99.3833 226.557 101.477 219.727 105.706 213.884C109.977 208.042 115.835 203.481 123.278 200.203C130.721 196.924 139.179 195.285 148.653 195.285C158.295 195.285 166.711 196.924 173.9 200.203C181.132 203.481 186.757 208.042 190.775 213.884C194.792 219.727 196.864 226.494 196.991 234.186H170.665Z" fill="white"/>
<path d="M247.057 327.894L209.884 198.773H239.889L261.394 288.49H262.473L286.198 198.773H311.89L335.552 288.679H336.694L384.994 110H415L351.03 327.894H324.26L299.52 243.474H298.505L273.828 327.894H247.057Z" fill="white"/>
<path d="M364.221 159.227L376.363 114.841H328.494V159.227H364.221Z" fill="#CA1F32"/>
<path d="M347.436 150.35V123.719H354.211V150.35H347.436ZM337.426 140.401V133.668H364.221V140.401H337.426Z" fill="white"/>
<path d="M140.168 246.243C142.661 247.125 145.325 247.882 148.156 248.512L159.827 251.285H159.828C165.498 252.547 170.703 254.229 175.443 256.332C180.184 258.435 184.291 261.024 187.763 264.096C191.236 267.168 193.925 270.789 195.831 274.956L196.186 275.745C197.901 279.724 198.778 284.239 198.817 289.288V289.289C198.775 297.2 196.743 304.061 192.719 309.871C188.737 315.638 182.977 320.12 175.442 323.317C167.949 326.473 158.913 328.05 148.335 328.05C137.842 328.05 128.701 326.452 120.912 323.255H120.911C113.164 320.057 107.109 315.323 102.747 309.052L102.746 309.051C98.4261 302.737 96.1619 294.93 95.9502 285.634L95.9492 285.582H122.627L122.63 285.629C122.925 289.95 124.17 293.555 126.361 296.445C128.597 299.296 131.572 301.456 135.286 302.924H135.285C139.042 304.35 143.287 305.063 148.019 305.063C152.666 305.063 156.698 304.392 160.116 303.05L160.756 302.792C163.909 301.472 166.374 299.692 168.152 297.454C170.048 295.067 170.996 292.325 170.996 289.226C170.996 286.517 170.237 284.216 168.721 282.319L168.407 281.945C166.722 279.978 164.234 278.3 160.939 276.915C157.686 275.529 153.693 274.269 148.958 273.135V273.134L134.812 269.604C123.853 266.954 115.196 262.811 108.845 257.172C102.489 251.529 99.3336 243.928 99.376 234.374C99.3338 226.547 101.429 219.706 105.665 213.854C109.942 208.004 115.808 203.439 123.258 200.157C130.708 196.876 139.173 195.235 148.652 195.235C158.3 195.235 166.724 196.875 173.921 200.157C181.16 203.439 186.792 208.005 190.815 213.855C194.839 219.707 196.914 226.484 197.041 234.185L197.042 234.235H170.62L170.615 234.19C170.109 229.118 167.938 225.18 164.102 222.373C160.264 219.565 155.053 218.158 148.462 218.158C143.984 218.158 140.205 218.788 137.126 220.046H137.125C134.237 221.186 131.983 222.75 130.358 224.734L130.042 225.137C128.442 227.313 127.642 229.783 127.642 232.546V232.548C127.557 234.851 128.042 236.859 129.093 238.572L129.303 238.891C130.377 240.473 131.803 241.854 133.582 243.033H133.581C135.48 244.25 137.676 245.32 140.168 246.243ZM415.066 109.95L415.048 110.014L351.078 327.908L351.067 327.944H324.223L324.212 327.908L299.482 243.523H298.542L273.876 327.908L273.865 327.944H247.02L247.01 327.908L209.836 198.787L209.817 198.723H239.929L239.938 198.762L261.434 288.439H262.434L286.149 198.761L286.159 198.723H311.929L311.938 198.761L335.59 288.629H336.655L384.946 109.986L384.956 109.95H415.066ZM376.429 114.791L376.411 114.854L364.27 159.24L364.26 159.276H328.443V114.791H376.429Z" stroke="white" stroke-width="0.1"/>
</svg>